<?xml version="1.0" standalone="no"?>
<!DOCTYPE svg PUBLIC "-//W3C//DTD SVG 20010904//EN" "http://www.w3.org/TR/2001/REC-SVG-20010904/DTD/svg10.dtd">
<svg
    version="1.0"
    xmlns="http://www.w3.org/2000/svg"
    width="82.000000pt"
    height="82.000000pt"
    viewBox="0 0 82.000000 82.000000"
    preserveAspectRatio="xMidYMid meet"
>
    <metadata>
        Created by potrace 1.16, written by Peter Selinger 2001-2019
    </metadata>
    <g
        transform="translate(0.000000,82.000000) scale(0.100000,-0.100000)"
        fill="currentColor"
        stroke="none"
    >
        <path
            d="M316 809 c-106 -25 -221 -116 -271 -214 -142 -282 82 -618 395 -592
66 6 180 42 180 57 0 5 -8 22 -17 38 l-17 29 -45 -21 c-65 -30 -197 -29 -263
1 -66 30 -133 96 -165 162 -37 75 -40 200 -6 273 30 66 96 133 162 165 48 24
69 28 141 28 101 0 154 -20 224 -85 69 -64 101 -137 101 -231 0 -94 -16 -119
-77 -119 -30 0 -45 7 -65 28 -24 25 -25 31 -18 97 12 126 13 120 -19 123 -16
2 -46 15 -68 29 -55 37 -121 41 -173 11 -95 -56 -133 -183 -83 -278 56 -103
180 -129 265 -56 l27 24 34 -26 c66 -50 186 -38 227 25 9 13 21 49 28 79 30
144 -59 327 -200 409 -81 48 -203 66 -297 44z m133 -305 c93 -78 10 -249 -100
-204 -78 33 -79 172 -1 214 39 22 67 19 101 -10z"
        />
    </g>
</svg>
