<?xml version="1.0" encoding="UTF-8"?>
<!DOCTYPE svg PUBLIC "-//W3C//DTD SVG 1.1//EN" "http://www.w3.org/Graphics/SVG/1.1/DTD/svg11.dtd">
<svg xmlns="http://www.w3.org/2000/svg" version="1.1" width="64px" height="80px" style="shape-rendering:geometricPrecision; text-rendering:geometricPrecision; image-rendering:optimizeQuality; fill-rule:evenodd; clip-rule:evenodd" xmlns:xlink="http://www.w3.org/1999/xlink">
<g><path style="opacity:1" fill="currentColor" d="M 25.5,-0.5 C 29.5,-0.5 33.5,-0.5 37.5,-0.5C 51.3365,4.00408 60.0031,13.3374 63.5,27.5C 63.5,32.8333 63.5,38.1667 63.5,43.5C 60.1783,57.1628 51.845,66.4961 38.5,71.5C 40.1933,74.1841 41.86,76.8508 43.5,79.5C 35.5,79.5 27.5,79.5 19.5,79.5C 21.14,76.8508 22.8067,74.1841 24.5,71.5C 11.1642,66.5044 2.83086,57.171 -0.5,43.5C -0.5,38.5 -0.5,33.5 -0.5,28.5C 2.54628,13.7874 11.2129,4.12073 25.5,-0.5 Z M 28.5,7.5 C 45.7984,8.96828 54.7984,18.4683 55.5,36C 54.7046,51.6199 46.7046,60.7865 31.5,63.5C 16.0348,60.6936 8.0348,51.3603 7.5,35.5C 7.82559,20.8763 14.8256,11.543 28.5,7.5 Z"/></g>
<g><path style="opacity:1" fill="currentColor" d="M 26.5,15.5 C 28.1667,15.5 29.8333,15.5 31.5,15.5C 32.4833,20.3548 30.8167,23.6881 26.5,25.5C 25.2485,27.0009 24.2485,28.6675 23.5,30.5C 20.9135,31.48 18.2469,31.8134 15.5,31.5C 16.0163,23.9863 19.6829,18.653 26.5,15.5 Z"/></g>
</svg>
