<?xml version="1.0" standalone="no"?>
<!DOCTYPE svg PUBLIC "-//W3C//DTD SVG 20010904//EN"
 "http://www.w3.org/TR/2001/REC-SVG-20010904/DTD/svg10.dtd">
<svg version="1.0" xmlns="http://www.w3.org/2000/svg"
 width="82.000000pt" height="79.000000pt" viewBox="0 0 82.000000 79.000000"
 preserveAspectRatio="xMidYMid meet">
<metadata>
Created by potrace 1.16, written by Peter Selinger 2001-2019
</metadata>
<g transform="translate(0.000000,79.000000) scale(0.100000,-0.100000)"
fill="currentColor" stroke="none">
<path d="M240 781 c-91 -29 -164 -90 -207 -174 -23 -44 -27 -65 -28 -137 0
-78 3 -90 34 -148 52 -96 139 -157 242 -169 l49 -6 0 -73 0 -72 178 98 c97 54
194 114 215 135 62 59 92 134 92 230 -1 102 -27 166 -96 230 -84 79 -119 89
-299 92 -85 1 -166 -1 -180 -6z m350 -92 c88 -40 138 -111 147 -210 5 -46 1
-66 -19 -111 -31 -68 -74 -104 -205 -174 l-103 -55 0 45 0 46 -63 0 c-111 0
-199 48 -243 131 -59 115 -3 268 120 325 46 21 65 24 186 24 114 0 142 -4 180
-21z"/>
</g>
</svg>
