<?xml version="1.0" encoding="UTF-8"?>
<!DOCTYPE svg PUBLIC "-//W3C//DTD SVG 1.1//EN" "http://www.w3.org/Graphics/SVG/1.1/DTD/svg11.dtd">
<svg xmlns="http://www.w3.org/2000/svg" version="1.1" width="82px" height="79px" style="shape-rendering:geometricPrecision; text-rendering:geometricPrecision; image-rendering:optimizeQuality; fill-rule:evenodd; clip-rule:evenodd" xmlns:xlink="http://www.w3.org/1999/xlink">
<g><path style="opacity:1" fill="#0f0f0f" d="M 24.5,-0.5 C 34.8333,-0.5 45.1667,-0.5 55.5,-0.5C 69.1667,3.16667 77.8333,11.8333 81.5,25.5C 81.5,29.8333 81.5,34.1667 81.5,38.5C 79.3967,45.4727 75.73,51.6394 70.5,57C 58.1038,64.1934 45.7704,71.36 33.5,78.5C 33.1667,78.5 32.8333,78.5 32.5,78.5C 32.5,73.5 32.5,68.5 32.5,63.5C 15.424,63.0809 4.424,54.7476 -0.5,38.5C -0.5,33.8333 -0.5,29.1667 -0.5,24.5C 3.5,11.8333 11.8333,3.5 24.5,-0.5 Z M 28.5,7.5 C 36.5069,7.33362 44.5069,7.50029 52.5,8C 66.9816,11.4625 73.8149,20.6292 73,35.5C 71.5592,42.9345 67.7258,48.7678 61.5,53C 54.5858,56.7066 47.7525,60.54 41,64.5C 40.502,61.5184 40.3354,58.5184 40.5,55.5C 21.3719,57.9614 10.3719,49.7947 7.5,31C 9.13156,18.2092 16.1316,10.3758 28.5,7.5 Z"/></g>
</svg>
