<?xml version="1.0" encoding="UTF-8"?>
<!DOCTYPE svg PUBLIC "-//W3C//DTD SVG 1.1//EN" "http://www.w3.org/Graphics/SVG/1.1/DTD/svg11.dtd">
<svg xmlns="http://www.w3.org/2000/svg" version="1.1" width="80px" height="72px" style="shape-rendering:geometricPrecision; text-rendering:geometricPrecision; image-rendering:optimizeQuality; fill-rule:evenodd; clip-rule:evenodd" xmlns:xlink="http://www.w3.org/1999/xlink">
<g><path style="opacity:1" fill="#060606" d="M 5.5,-0.5 C 28.1667,-0.5 50.8333,-0.5 73.5,-0.5C 75.8333,1.16667 77.8333,3.16667 79.5,5.5C 79.5,25.5 79.5,45.5 79.5,65.5C 77.8333,67.8333 75.8333,69.8333 73.5,71.5C 50.8333,71.5 28.1667,71.5 5.5,71.5C 3.16667,69.8333 1.16667,67.8333 -0.5,65.5C -0.5,45.5 -0.5,25.5 -0.5,5.5C 1.16667,3.16667 3.16667,1.16667 5.5,-0.5 Z M 8.5,7.5 C 29.1694,7.33338 49.836,7.50004 70.5,8C 71.6295,12.0785 71.7961,16.2452 71,20.5C 60.5691,25.2983 50.0691,29.9649 39.5,34.5C 29.1717,30.0029 18.8384,25.5029 8.5,21C 7.19435,16.5006 7.19435,12.0006 8.5,7.5 Z M 7.5,29.5 C 17.9116,34.7048 28.5783,39.3714 39.5,43.5C 50.3032,39.5103 60.8032,34.8436 71,29.5C 71.6667,40.5 71.6667,51.5 71,62.5C 50.2397,63.6596 29.4063,63.8263 8.5,63C 7.51259,51.9146 7.17925,40.748 7.5,29.5 Z"/></g>
</svg>
