<?xml version="1.0" standalone="no"?>
<!DOCTYPE svg PUBLIC "-//W3C//DTD SVG 20010904//EN"
 "http://www.w3.org/TR/2001/REC-SVG-20010904/DTD/svg10.dtd">
<svg version="1.0" xmlns="http://www.w3.org/2000/svg"
 width="80.000000pt" height="72.000000pt" viewBox="0 0 80.000000 72.000000"
 preserveAspectRatio="xMidYMid meet">
<metadata>
Created by potrace 1.16, written by Peter Selinger 2001-2019
</metadata>
<g transform="translate(0.000000,72.000000) scale(0.100000,-0.100000)"
fill="currentColor" stroke="none">
<path d="M54 709 c-51 -25 -54 -46 -54 -349 0 -305 3 -325 55 -348 18 -9 119
-12 346 -12 347 0 363 2 387 55 16 35 17 573 1 608 -25 55 -39 57 -391 56
-195 0 -331 -4 -344 -10z m661 -138 l0 -64 -149 -69 c-82 -37 -157 -68 -165
-68 -9 0 -83 31 -166 69 l-150 68 -3 53 c-2 29 -1 59 2 66 5 12 59 14 318 12
l313 -3 0 -64z m-447 -235 c68 -31 129 -56 135 -56 7 1 80 32 162 69 l150 69
3 -156 c1 -86 0 -162 -2 -169 -4 -11 -68 -13 -318 -11 l-313 3 -3 168 -2 167
32 -14 c18 -7 88 -39 156 -70z"/>
</g>
</svg>
