<?xml version="1.0" encoding="UTF-8"?>
<!DOCTYPE svg PUBLIC "-//W3C//DTD SVG 1.1//EN" "http://www.w3.org/Graphics/SVG/1.1/DTD/svg11.dtd">
<svg xmlns="http://www.w3.org/2000/svg" version="1.1" width="84px" height="80px" style="shape-rendering:geometricPrecision; text-rendering:geometricPrecision; image-rendering:optimizeQuality; fill-rule:evenodd; clip-rule:evenodd" xmlns:xlink="http://www.w3.org/1999/xlink">
<g><path style="opacity:0.992" fill="currentColor" d="M 70.5,-0.5 C 72.5,-0.5 74.5,-0.5 76.5,-0.5C 79.1667,1.5 81.5,3.83333 83.5,6.5C 83.5,8.5 83.5,10.5 83.5,12.5C 74.5989,23.2464 65.4323,33.9131 56,44.5C 54.7738,51.3937 50.9405,56.227 44.5,59C 37.5079,59.4996 30.5079,59.6663 23.5,59.5C 23.3337,52.4921 23.5004,45.4921 24,38.5C 26.773,32.0595 31.6063,28.2262 38.5,27C 49.064,17.5943 59.7307,8.42766 70.5,-0.5 Z M 71.5,8.5 C 73.1033,8.31181 74.4366,8.81181 75.5,10C 68.6266,17.2046 62.1266,24.7046 56,32.5C 55.1627,34.0074 53.9961,34.5074 52.5,34C 50.3619,32.5784 49.1953,30.745 49,28.5C 56.6666,21.9335 64.1666,15.2669 71.5,8.5 Z M 37.5,35.5 C 46.0699,36.3162 48.7365,40.6495 45.5,48.5C 44.3349,49.5836 43.0016,50.4169 41.5,51C 38.1832,51.4983 34.8499,51.665 31.5,51.5C 31.335,48.1501 31.5017,44.8168 32,41.5C 33.0209,38.6499 34.8542,36.6499 37.5,35.5 Z"/></g>
<g><path style="opacity:0.992" fill="currentColor" d="M 73.5,79.5 C 50.8333,79.5 28.1667,79.5 5.5,79.5C 3.16667,77.8333 1.16667,75.8333 -0.5,73.5C -0.5,53.5 -0.5,33.5 -0.5,13.5C 0.977392,11.193 2.97739,9.35968 5.5,8C 15.4944,7.50019 25.4944,7.33352 35.5,7.5C 35.5,10.1667 35.5,12.8333 35.5,15.5C 26.2494,15.1822 17.0828,15.5155 8,16.5C 7.1748,34.7403 7.34147,52.9069 8.5,71C 29.1667,71.6667 49.8333,71.6667 70.5,71C 71.4845,61.9172 71.8178,52.7506 71.5,43.5C 74.1667,43.5 76.8333,43.5 79.5,43.5C 79.6665,53.5056 79.4998,63.5056 79,73.5C 77.6403,76.0226 75.807,78.0226 73.5,79.5 Z"/></g>
</svg>
