<?xml version="1.0" standalone="no"?>
<!DOCTYPE svg PUBLIC "-//W3C//DTD SVG 20010904//EN" "http://www.w3.org/TR/2001/REC-SVG-20010904/DTD/svg10.dtd">
<svg
    version="1.0"
    xmlns="http://www.w3.org/2000/svg"
    width="84.000000pt"
    height="80.000000pt"
    viewBox="0 0 84.000000 80.000000"
    preserveAspectRatio="xMidYMid meet"
>
    <metadata>
        Created by potrace 1.16, written by Peter Selinger 2001-2019
    </metadata>
    <g
        transform="translate(0.000000,80.000000) scale(0.100000,-0.100000)"
        fill="currentColor"
        stroke="none"
    >
        <path
            d="M703 790 c-13 -5 -88 -67 -167 -137 -95 -85 -159 -133 -187 -143 -26
-9 -54 -30 -73 -53 -30 -37 -31 -43 -34 -148 l-4 -109 96 0 c59 0 109 5 129
14 40 16 83 65 92 104 3 17 61 91 140 180 82 93 136 163 140 181 6 31 -11 77
-38 99 -20 17 -68 23 -94 12z m54 -87 c4 -10 -203 -253 -215 -253 -8 0 -52 42
-52 50 0 13 242 221 253 217 6 -2 12 -8 14 -14z m-302 -288 c16 -15 25 -36 25
-55 0 -51 -38 -80 -105 -80 l-55 0 0 55 c0 67 29 105 80 105 19 0 40 -9 55
-25z"
        />
        <path
            d="M54 709 c-51 -25 -54 -46 -54 -348 0 -180 4 -289 11 -304 25 -55 39
-57 389 -57 348 0 364 2 388 55 7 16 12 79 12 165 l0 140 -40 0 -39 0 -3 -137
-3 -138 -315 0 -315 0 0 275 0 275 138 3 137 3 0 39 0 40 -142 -1 c-79 0 -152
-5 -164 -10z"
        />
    </g>
</svg>
