<?xml version="1.0" encoding="UTF-8"?>
<!DOCTYPE svg PUBLIC "-//W3C//DTD SVG 1.1//EN" "http://www.w3.org/Graphics/SVG/1.1/DTD/svg11.dtd">
<svg xmlns="http://www.w3.org/2000/svg" version="1.1" width="90px" height="74px" style="shape-rendering:geometricPrecision; text-rendering:geometricPrecision; image-rendering:optimizeQuality; fill-rule:evenodd; clip-rule:evenodd" xmlns:xlink="http://www.w3.org/1999/xlink">
<g><path style="opacity:1" fill="currentColor" d="M 62.5,-0.5 C 63.1667,-0.5 63.8333,-0.5 64.5,-0.5C 66.0188,0.409824 67.6854,1.24316 69.5,2C 76.4033,9.39668 83.07,16.8967 89.5,24.5C 89.5,26.5 89.5,28.5 89.5,30.5C 75.5274,44.8066 61.5274,59.1399 47.5,73.5C 40.1667,73.5 32.8333,73.5 25.5,73.5C 20.8698,68.3687 16.0365,63.3687 11,58.5C 9,55.1667 9,51.8333 11,48.5C 26.8333,32.6667 42.6667,16.8333 58.5,1C 60.0581,0.78997 61.3915,0.28997 62.5,-0.5 Z M 61.5,8.5 C 62.552,8.35055 63.552,8.51722 64.5,9C 70.6712,14.5563 76.0045,20.7229 80.5,27.5C 73.8977,35.7712 66.5643,43.4378 58.5,50.5C 51.8333,44.5 45.5,38.1667 39.5,31.5C 46.8548,23.8128 54.1881,16.1461 61.5,8.5 Z M 32.5,37.5 C 39.7571,43.0873 46.4238,49.4207 52.5,56.5C 46.8131,65.2345 38.8131,68.0679 28.5,65C 25.3333,61.8333 22.1667,58.6667 19,55.5C 18.3333,54.1667 18.3333,52.8333 19,51.5C 23.7033,46.9645 28.2033,42.2979 32.5,37.5 Z"/></g>
<g><path style="opacity:1" fill="currentColor" d="M 9.5,14.5 C 12.6306,17.1288 15.6306,19.9621 18.5,23C 16.6667,24.8333 14.8333,26.6667 13,28.5C 10.1667,25.6667 7.33333,22.8333 4.5,20C 6.37342,18.2962 8.04009,16.4628 9.5,14.5 Z"/></g>
<g><path style="opacity:1" fill="currentColor" d="M -0.5,33.5 C 3.5,33.5 7.5,33.5 11.5,33.5C 11.5,36.1667 11.5,38.8333 11.5,41.5C 7.5,41.5 3.5,41.5 -0.5,41.5C -0.5,38.8333 -0.5,36.1667 -0.5,33.5 Z"/></g>
<g><path style="opacity:1" fill="currentColor" d="M 87.5,73.5 C 77.5,73.5 67.5,73.5 57.5,73.5C 59.6281,70.8697 61.9614,68.3697 64.5,66C 72.1594,65.5003 79.8261,65.3336 87.5,65.5C 87.5,68.1667 87.5,70.8333 87.5,73.5 Z"/></g>
</svg>
