<?xml version="1.0" standalone="no"?>
<!DOCTYPE svg PUBLIC "-//W3C//DTD SVG 20010904//EN"
 "http://www.w3.org/TR/2001/REC-SVG-20010904/DTD/svg10.dtd">
<svg version="1.0" xmlns="http://www.w3.org/2000/svg"
 width="88.000000pt" height="84.000000pt" viewBox="0 0 88.000000 84.000000"
 preserveAspectRatio="xMidYMid meet">
<metadata>
Created by potrace 1.16, written by Peter Selinger 2001-2019
</metadata>
<g transform="translate(0.000000,84.000000) scale(0.100000,-0.100000)"
fill="currentColor" stroke="none">
<path d="M120 780 l0 -60 -60 0 -60 0 0 -40 0 -40 60 0 60 0 0 -60 0 -60 40 0
40 0 0 60 0 60 60 0 60 0 0 40 0 40 -60 0 -60 0 0 60 0 60 -40 0 -40 0 0 -60z"/>
<path d="M707 745 c-201 -40 -362 -188 -444 -406 -33 -88 -63 -231 -63 -300 0
-39 0 -39 40 -39 l40 0 0 48 c0 26 4 52 8 58 4 7 51 13 122 16 133 4 186 23
255 92 41 42 85 121 85 154 0 10 20 39 44 64 55 59 76 119 83 236 l6 92 -54
-1 c-30 0 -84 -7 -122 -14z m89 -114 c-17 -131 -83 -191 -208 -191 l-48 0 0
-41 0 -41 60 4 c70 4 76 -7 36 -61 -57 -77 -116 -101 -248 -101 l-87 0 15 52
c61 209 215 369 397 414 90 21 91 21 83 -35z"/>
</g>
</svg>
