<?xml version="1.0" standalone="no"?>
<!DOCTYPE svg PUBLIC "-//W3C//DTD SVG 20010904//EN"
 "http://www.w3.org/TR/2001/REC-SVG-20010904/DTD/svg10.dtd">
<svg version="1.0" xmlns="http://www.w3.org/2000/svg"
 width="68.000000pt" height="84.000000pt" viewBox="0 0 68.000000 84.000000"
 preserveAspectRatio="xMidYMid meet">
<metadata>
Created by potrace 1.16, written by Peter Selinger 2001-2019
</metadata>
<g transform="translate(0.000000,84.000000) scale(0.100000,-0.100000)"
fill="currentColor" stroke="none">
<path d="M297 762 c-3 -42 -10 -89 -17 -103 l-12 -26 -38 41 c-21 22 -40 39
-42 36 -22 -27 -142 -226 -160 -265 -32 -71 -32 -189 1 -263 30 -66 104 -135
174 -159 75 -26 216 -24 279 5 108 48 184 153 195 266 17 183 -109 379 -333
519 l-41 26 -6 -77z m220 -209 c98 -138 109 -286 28 -380 l-32 -37 -5 74 c-4
61 -12 90 -43 151 l-38 76 -105 -106 c-107 -108 -122 -131 -122 -182 0 -34 -2
-35 -36 -13 -40 27 -75 97 -81 163 -5 49 -1 68 21 116 14 31 43 80 63 108 l37
50 8 -29 c5 -16 6 -41 3 -57 -4 -24 -2 -26 13 -18 48 26 117 121 134 184 l12
46 48 -41 c27 -22 69 -69 95 -105z m-88 -318 c9 -36 8 -52 -3 -78 -17 -42 -61
-77 -95 -77 -37 0 -51 17 -51 61 0 32 8 44 61 93 33 31 64 54 68 51 5 -2 14
-25 20 -50z"/>
</g>
</svg>
