<?xml version="1.0" encoding="UTF-8"?>
<!DOCTYPE svg PUBLIC "-//W3C//DTD SVG 1.1//EN" "http://www.w3.org/Graphics/SVG/1.1/DTD/svg11.dtd">
<svg xmlns="http://www.w3.org/2000/svg" version="1.1" width="68px" height="84px" style="shape-rendering:geometricPrecision; text-rendering:geometricPrecision; image-rendering:optimizeQuality; fill-rule:evenodd; clip-rule:evenodd" xmlns:xlink="http://www.w3.org/1999/xlink">
<g><path style="opacity:1" fill="currentColor" d="M 29.5,-0.5 C 29.8333,-0.5 30.1667,-0.5 30.5,-0.5C 42.6734,6.50079 52.84,15.8341 61,27.5C 63.685,32.7441 65.8516,38.0775 67.5,43.5C 67.5,48.1667 67.5,52.8333 67.5,57.5C 63.7575,71.575 54.7575,80.2417 40.5,83.5C 35.5,83.5 30.5,83.5 25.5,83.5C 12.2385,79.9045 3.57182,71.5711 -0.5,58.5C -0.5,54.1667 -0.5,49.8333 -0.5,45.5C 4.32264,34.1361 10.3226,23.3027 17.5,13C 20.776,14.2365 23.6094,16.4032 26,19.5C 28.7754,13.1847 29.942,6.518 29.5,-0.5 Z M 19.5,67.5 C 18.8333,68.5 18.1667,69.5 17.5,70.5C 6.61795,61.1449 4.78461,50.1449 12,37.5C 14.422,33.6562 17.0887,29.9895 20,26.5C 20.4643,27.0944 20.631,27.7611 20.5,28.5C 20.1826,31.5719 20.5159,34.5719 21.5,37.5C 22.1067,37.3764 22.44,37.0431 22.5,36.5C 29.9745,30.8937 34.9745,23.5604 37.5,14.5C 53.6015,25.3642 60.4348,40.3642 58,59.5C 56.1591,63.1832 53.8258,66.5165 51,69.5C 51.5853,58.4178 48.4186,48.4178 41.5,39.5C 35.8523,46.9813 29.3523,53.6479 22,59.5C 20.2932,61.9088 19.4598,64.5755 19.5,67.5 Z M 39.5,54.5 C 40.9663,55.347 41.7996,56.6803 42,58.5C 43.4716,64.0755 42.3049,68.9089 38.5,73C 30.5689,77.4622 27.0689,75.2955 28,66.5C 31.3635,61.9715 35.1969,57.9715 39.5,54.5 Z"/></g>
<g><path style="opacity:0.655" fill="currentColor" d="M 20.5,28.5 C 21.1667,31.1667 21.8333,33.8333 22.5,36.5C 22.44,37.0431 22.1067,37.3764 21.5,37.5C 20.5159,34.5719 20.1826,31.5719 20.5,28.5 Z"/></g>
<g><path style="opacity:0.3" fill="currentColor" d="M 19.5,67.5 C 19.762,68.9778 19.4287,70.3112 18.5,71.5C 17.8933,71.3764 17.56,71.0431 17.5,70.5C 18.1667,69.5 18.8333,68.5 19.5,67.5 Z"/></g>
</svg>
