<?xml version="1.0" standalone="no"?>
<!DOCTYPE svg PUBLIC "-//W3C//DTD SVG 20010904//EN"
 "http://www.w3.org/TR/2001/REC-SVG-20010904/DTD/svg10.dtd">
<svg version="1.0" xmlns="http://www.w3.org/2000/svg"
 width="72.000000pt" height="72.000000pt" viewBox="0 0 72.000000 72.000000"
 preserveAspectRatio="xMidYMid meet">
<metadata>
Created by potrace 1.16, written by Peter Selinger 2001-2019
</metadata>
<g transform="translate(0.000000,72.000000) scale(0.100000,-0.100000)"
fill="currentColor" stroke="none">
<path d="M54 709 c-51 -25 -54 -46 -54 -349 0 -305 3 -325 55 -348 18 -8 110
-12 306 -12 304 0 324 3 347 55 16 35 17 573 1 608 -25 54 -43 57 -351 56
-168 0 -291 -4 -304 -10z m581 -349 l0 -275 -29 -3 c-26 -3 -49 16 -217 184
l-187 187 -61 -52 -61 -53 0 139 c0 77 3 143 7 146 4 4 128 6 277 5 l271 -3 0
-275z m-300 -150 l130 -130 -190 2 -190 3 -2 80 -2 80 56 48 c31 26 59 47 62
47 4 0 65 -59 136 -130z"/>
<path d="M425 535 c-16 -15 -25 -36 -25 -55 0 -19 9 -40 25 -55 15 -16 36 -25
55 -25 70 0 105 86 55 135 -15 16 -36 25 -55 25 -19 0 -40 -9 -55 -25z"/>
</g>
</svg>
