<?xml version="1.0" encoding="UTF-8"?>
<!DOCTYPE svg PUBLIC "-//W3C//DTD SVG 1.1//EN" "http://www.w3.org/Graphics/SVG/1.1/DTD/svg11.dtd">
<svg xmlns="http://www.w3.org/2000/svg" version="1.1" width="72px" height="72px" style="shape-rendering:geometricPrecision; text-rendering:geometricPrecision; image-rendering:optimizeQuality; fill-rule:evenodd; clip-rule:evenodd" xmlns:xlink="http://www.w3.org/1999/xlink">
<g><path style="opacity:1" fill="currentColor" d="M 5.5,-0.5 C 25.5,-0.5 45.5,-0.5 65.5,-0.5C 67.8333,1.16667 69.8333,3.16667 71.5,5.5C 71.5,25.5 71.5,45.5 71.5,65.5C 69.8333,67.8333 67.8333,69.8333 65.5,71.5C 45.5,71.5 25.5,71.5 5.5,71.5C 3.16667,69.8333 1.16667,67.8333 -0.5,65.5C -0.5,45.5 -0.5,25.5 -0.5,5.5C 1.16667,3.16667 3.16667,1.16667 5.5,-0.5 Z M 8.5,7.5 C 26.7433,7.17427 44.9099,7.5076 63,8.5C 63.8252,26.7403 63.6585,44.9069 62.5,63C 60.5,63.6667 58.5,63.6667 56.5,63C 44.3193,50.6525 31.986,38.4858 19.5,26.5C 15.2233,29.2735 11.39,32.6068 8,36.5C 7.19434,26.756 7.36101,17.0893 8.5,7.5 Z M 18.5,37.5 C 27.9123,45.408 36.9123,53.908 45.5,63C 33.1667,63.6667 20.8333,63.6667 8.5,63C 7.36298,57.918 7.19631,52.7513 8,47.5C 11.3955,43.9349 14.8955,40.6015 18.5,37.5 Z"/></g>
<g><path style="opacity:1" fill="currentColor" d="M 44.5,15.5 C 52.6577,14.8229 56.1577,18.4895 55,26.5C 52.7742,30.8608 49.2742,32.3608 44.5,31C 40.1392,28.7742 38.6392,25.2742 40,20.5C 41.025,18.313 42.525,16.6464 44.5,15.5 Z"/></g>
</svg>
