<?xml version="1.0" standalone="no"?>
<!DOCTYPE svg PUBLIC "-//W3C//DTD SVG 20010904//EN"
 "http://www.w3.org/TR/2001/REC-SVG-20010904/DTD/svg10.dtd">
<svg version="1.0" xmlns="http://www.w3.org/2000/svg"
 width="80.000000pt" height="71.000000pt" viewBox="0 0 80.000000 71.000000"
 preserveAspectRatio="xMidYMid meet">
<metadata>
Created by potrace 1.16, written by Peter Selinger 2001-2019
</metadata>
<g transform="translate(0.000000,71.000000) scale(0.100000,-0.100000)"
fill="currentColor" stroke="none">
<path d="M135 691 c-90 -41 -130 -106 -130 -211 0 -104 41 -186 145 -290 75
-76 220 -180 250 -180 28 0 184 112 256 185 99 100 139 182 139 285 0 82 -13
115 -62 164 -82 83 -224 85 -310 4 l-23 -21 -22 21 c-63 58 -169 77 -243 43z
m154 -81 c21 -10 55 -39 75 -62 l36 -43 36 43 c67 79 150 102 215 59 107 -71
84 -221 -57 -361 -54 -55 -176 -146 -194 -146 -19 0 -138 89 -193 145 -142
142 -166 290 -58 362 42 28 90 29 140 3z"/>
</g>
</svg>
