<?xml version="1.0" encoding="UTF-8"?>
<!DOCTYPE svg PUBLIC "-//W3C//DTD SVG 1.1//EN" "http://www.w3.org/Graphics/SVG/1.1/DTD/svg11.dtd">
<svg xmlns="http://www.w3.org/2000/svg" version="1.1" width="91px" height="81px" style="shape-rendering:geometricPrecision; text-rendering:geometricPrecision; image-rendering:optimizeQuality; fill-rule:evenodd; clip-rule:evenodd" xmlns:xlink="http://www.w3.org/1999/xlink">
<g><path style="opacity:1" fill="currentColor" d="M 43.5,-0.5 C 44.5,-0.5 45.5,-0.5 46.5,-0.5C 60.7918,9.31897 75.4585,18.6523 90.5,27.5C 90.5,27.8333 90.5,28.1667 90.5,28.5C 88.8518,30.4293 87.1851,32.4293 85.5,34.5C 83.7419,33.8721 82.2419,32.8721 81,31.5C 80.6667,45.8333 80.3333,60.1667 80,74.5C 78.6403,77.0226 76.807,79.0226 74.5,80.5C 54.5,80.5 34.5,80.5 14.5,80.5C 12.193,79.0226 10.3597,77.0226 9,74.5C 8.66667,60.1667 8.33333,45.8333 8,31.5C 6.41399,32.376 4.91399,33.376 3.5,34.5C 2.11276,32.79 0.77943,31.1233 -0.5,29.5C -0.5,28.5 -0.5,27.5 -0.5,26.5C 14.5089,17.9986 29.1755,8.99856 43.5,-0.5 Z M 42.5,9.5 C 52.8867,14.0192 62.72,19.6858 72,26.5C 72.8236,41.7412 72.6569,56.9078 71.5,72C 53.2597,72.8252 35.0931,72.6585 17,71.5C 16.3333,56.5 16.3333,41.5 17,26.5C 25.4794,20.6859 33.9794,15.0192 42.5,9.5 Z M 42.5,36.5 C 51.0699,37.3162 53.7365,41.6495 50.5,49.5C 43.6865,54.0995 39.0199,52.4329 36.5,44.5C 37.0752,40.6508 39.0752,37.9842 42.5,36.5 Z"/></g>
<g><path style="opacity:1" fill="currentColor" d="M 39.5,28.5 C 54.3137,27.8129 61.147,34.8129 60,49.5C 54.6382,60.4313 46.4716,63.2646 35.5,58C 28.0855,51.7052 26.5855,44.2052 31,35.5C 33.4412,32.5464 36.2745,30.2131 39.5,28.5 Z M 42.5,36.5 C 39.0752,37.9842 37.0752,40.6508 36.5,44.5C 39.0199,52.4329 43.6865,54.0995 50.5,49.5C 53.7365,41.6495 51.0699,37.3162 42.5,36.5 Z"/></g>
</svg>
