<?xml version="1.0" standalone="no"?>
<!DOCTYPE svg PUBLIC "-//W3C//DTD SVG 20010904//EN"
 "http://www.w3.org/TR/2001/REC-SVG-20010904/DTD/svg10.dtd">
<svg version="1.0" xmlns="http://www.w3.org/2000/svg"
 width="91.000000pt" height="81.000000pt" viewBox="0 0 91.000000 81.000000"
 preserveAspectRatio="xMidYMid meet">
<metadata>
Created by potrace 1.16, written by Peter Selinger 2001-2019
</metadata>
<g transform="translate(0.000000,81.000000) scale(0.100000,-0.100000)"
fill="currentColor" stroke="none">
<path d="M230 675 c-118 -74 -218 -139 -223 -144 -7 -7 0 -24 29 -69 1 -2 14
4 28 13 l26 17 0 -206 c0 -225 5 -252 55 -274 37 -17 573 -17 610 0 50 22 55
49 55 274 l0 206 26 -17 c28 -18 29 -18 55 29 8 14 8 21 -3 31 -14 13 -433
275 -439 275 -2 -1 -101 -61 -219 -135z m366 -47 l134 -83 -3 -230 -2 -230
-275 0 -275 0 -2 230 -2 230 132 82 c72 45 138 82 146 83 7 0 73 -37 147 -82z"/>
<path d="M384 506 c-17 -8 -44 -31 -60 -52 -24 -31 -29 -47 -29 -95 0 -96 58
-154 155 -154 97 0 155 58 155 155 0 63 -16 95 -67 133 -34 25 -113 32 -154
13z m121 -91 c50 -49 15 -135 -55 -135 -41 0 -80 39 -80 80 0 19 9 40 25 55
15 16 36 25 55 25 19 0 40 -9 55 -25z"/>
</g>
</svg>
