<?xml version="1.0" encoding="UTF-8"?>
<!DOCTYPE svg PUBLIC "-//W3C//DTD SVG 1.1//EN" "http://www.w3.org/Graphics/SVG/1.1/DTD/svg11.dtd">
<svg xmlns="http://www.w3.org/2000/svg" version="1.1" width="79px" height="83px" style="shape-rendering:geometricPrecision; text-rendering:geometricPrecision; image-rendering:optimizeQuality; fill-rule:evenodd; clip-rule:evenodd" xmlns:xlink="http://www.w3.org/1999/xlink">
<g><path style="opacity:0.992" fill="currentColor" d="M 18.5,-0.5 C 33.8333,-0.5 49.1667,-0.5 64.5,-0.5C 61.0976,5.96946 57.4309,12.3028 53.5,18.5C 61.8068,19.4979 70.1401,19.8312 78.5,19.5C 78.5,19.8333 78.5,20.1667 78.5,20.5C 57.5,40.8333 36.8333,61.5 16.5,82.5C 16.1667,82.5 15.8333,82.5 15.5,82.5C 17.4449,70.886 19.1115,59.2193 20.5,47.5C 13.5,47.5 6.5,47.5 -0.5,47.5C -0.5,46.8333 -0.5,46.1667 -0.5,45.5C 6.20556,30.3995 12.5389,15.0661 18.5,-0.5 Z M 24.5,7.5 C 32.8599,7.16879 41.1932,7.50212 49.5,8.5C 45.7074,14.5841 42.0408,20.7507 38.5,27C 45.5,27.3333 52.5,27.6667 59.5,28C 49,38.5 38.5,49 28,59.5C 28.2208,53.1183 29.0542,46.785 30.5,40.5C 24.1928,39.6694 17.8594,39.1694 11.5,39C 15.9778,28.5464 20.3111,18.0464 24.5,7.5 Z"/></g>
</svg>
