<?xml version="1.0" encoding="UTF-8"?>
<!DOCTYPE svg PUBLIC "-//W3C//DTD SVG 1.1//EN" "http://www.w3.org/Graphics/SVG/1.1/DTD/svg11.dtd">
<svg xmlns="http://www.w3.org/2000/svg" version="1.1" width="68px" height="81px" style="shape-rendering:geometricPrecision; text-rendering:geometricPrecision; image-rendering:optimizeQuality; fill-rule:evenodd; clip-rule:evenodd" xmlns:xlink="http://www.w3.org/1999/xlink">
<g><path style="opacity:1" fill="currentColor" d="M 26.5,-0.5 C 31.1667,-0.5 35.8333,-0.5 40.5,-0.5C 54.5,3.5 63.5,12.5 67.5,26.5C 67.5,30.8333 67.5,35.1667 67.5,39.5C 63.5515,51.3135 56.8848,61.4801 47.5,70C 43.0968,73.5191 38.7634,77.0191 34.5,80.5C 33.8333,80.5 33.1667,80.5 32.5,80.5C 23.7995,74.2082 15.9662,66.8749 9,58.5C 4.72741,52.6216 1.56075,46.2883 -0.5,39.5C -0.5,35.1667 -0.5,30.8333 -0.5,26.5C 3.5,12.5 12.5,3.5 26.5,-0.5 Z M 29.5,7.5 C 51.5859,8.41155 61.0859,19.7449 58,41.5C 52.5816,53.2564 44.5816,62.923 34,70.5C 20.0269,61.543 11.1935,49.043 7.5,33C 9.01098,19.3314 16.3443,10.8314 29.5,7.5 Z M 31.5,27.5 C 37.3296,27.1605 39.8296,29.8272 39,35.5C 35.3333,40.8333 31.6667,40.8333 28,35.5C 27.2793,31.9463 28.4459,29.2796 31.5,27.5 Z"/></g>
<g><path style="opacity:1" fill="currentColor" d="M 29.5,19.5 C 42.6524,18.4848 48.4857,24.4848 47,37.5C 44.0529,45.7215 38.2196,48.8882 29.5,47C 20.273,43.0157 17.4396,36.1823 21,26.5C 23.217,23.3227 26.0503,20.9893 29.5,19.5 Z M 31.5,27.5 C 28.4459,29.2796 27.2793,31.9463 28,35.5C 31.6667,40.8333 35.3333,40.8333 39,35.5C 39.8296,29.8272 37.3296,27.1605 31.5,27.5 Z"/></g>
</svg>
