<?xml version="1.0" standalone="no"?>
<!DOCTYPE svg PUBLIC "-//W3C//DTD SVG 20010904//EN"
 "http://www.w3.org/TR/2001/REC-SVG-20010904/DTD/svg10.dtd">
<svg version="1.0" xmlns="http://www.w3.org/2000/svg"
 width="68.000000pt" height="81.000000pt" viewBox="0 0 68.000000 81.000000"
 preserveAspectRatio="xMidYMid meet">
<metadata>
Created by potrace 1.16, written by Peter Selinger 2001-2019
</metadata>
<g transform="translate(0.000000,81.000000) scale(0.100000,-0.100000)"
fill="currentColor" stroke="none">
<path d="M243 796 c-59 -19 -104 -49 -153 -102 -143 -155 -111 -361 86 -558
39 -39 92 -86 117 -103 l45 -33 59 44 c287 213 361 470 187 656 -64 68 -136
102 -227 106 -43 2 -89 -2 -114 -10z m205 -90 c97 -50 146 -127 147 -231 0
-102 -33 -165 -151 -283 -51 -50 -98 -92 -104 -92 -6 0 -53 42 -104 93 -101
101 -146 175 -154 255 -10 114 62 226 174 268 49 18 148 13 192 -10z"/>
<path d="M272 590 c-94 -57 -94 -183 0 -240 64 -39 146 -16 188 52 71 117 -71
259 -188 188z"/>
</g>
</svg>
