<?xml version="1.0" encoding="UTF-8"?>
<!DOCTYPE svg PUBLIC "-//W3C//DTD SVG 1.1//EN" "http://www.w3.org/Graphics/SVG/1.1/DTD/svg11.dtd">
<svg xmlns="http://www.w3.org/2000/svg" version="1.1" width="72px" height="80px" style="shape-rendering:geometricPrecision; text-rendering:geometricPrecision; image-rendering:optimizeQuality; fill-rule:evenodd; clip-rule:evenodd" xmlns:xlink="http://www.w3.org/1999/xlink">
<g><path style="opacity:1" fill="currentColor" d="M 30.5,-0.5 C 33.8333,-0.5 37.1667,-0.5 40.5,-0.5C 46.6668,1.49328 51.1668,5.49328 54,11.5C 55.5867,21.0916 55.9201,30.7583 55,40.5C 52.1273,50.2051 45.6273,55.2051 35.5,55.5C 25.3727,55.2051 18.8727,50.2051 16,40.5C 15.0799,30.7583 15.4133,21.0916 17,11.5C 19.8332,5.49328 24.3332,1.49328 30.5,-0.5 Z M 32.5,7.5 C 39.4886,7.07557 44.322,10.0756 47,16.5C 47.6667,23.8333 47.6667,31.1667 47,38.5C 43.0197,47.0793 36.8531,49.2459 28.5,45C 26.1898,43.3626 24.6898,41.196 24,38.5C 23.3333,31.1667 23.3333,23.8333 24,16.5C 25.6878,12.3148 28.5212,9.31481 32.5,7.5 Z"/></g>
<g><path style="opacity:1" fill="currentColor" d="M 71.5,44.5 C 71.5,45.1667 71.5,45.8333 71.5,46.5C 67.0796,56.7548 59.7463,64.2548 49.5,69C 46.2321,70.1503 42.8988,70.9836 39.5,71.5C 39.5,74.1667 39.5,76.8333 39.5,79.5C 36.8333,79.5 34.1667,79.5 31.5,79.5C 31.5,76.8333 31.5,74.1667 31.5,71.5C 23.5004,70.4995 16.5004,67.3328 10.5,62C 6.19711,57.2056 2.53044,52.039 -0.5,46.5C -0.5,45.8333 -0.5,45.1667 -0.5,44.5C 2.11378,43.4552 4.78045,42.9552 7.5,43C 18.0031,63.79 33.3364,68.4567 53.5,57C 57.6094,52.8902 60.9427,48.2235 63.5,43C 66.2196,42.9552 68.8862,43.4552 71.5,44.5 Z"/></g>
</svg>
