<?xml version="1.0" standalone="no"?>
<!DOCTYPE svg PUBLIC "-//W3C//DTD SVG 20010904//EN" "http://www.w3.org/TR/2001/REC-SVG-20010904/DTD/svg10.dtd">
<svg
    version="1.0"
    xmlns="http://www.w3.org/2000/svg"
    width="72.000000pt"
    height="80.000000pt"
    viewBox="0 0 72.000000 80.000000"
    preserveAspectRatio="xMidYMid meet"
>
    <metadata>
        Created by potrace 1.16, written by Peter Selinger 2001-2019
    </metadata>
    <g
        transform="translate(0.000000,80.000000) scale(0.100000,-0.100000)"
        fill="currentColor"
        stroke="none"
    >
        <path
            d="M290 788 c-49 -17 -107 -79 -120 -129 -7 -24 -10 -92 -8 -158 4 -136
20 -178 87 -226 37 -26 51 -30 110 -30 56 0 74 4 108 27 22 15 51 44 64 65 22
35 24 48 24 178 0 162 -12 199 -81 248 -46 32 -128 43 -184 25z m154 -107 c31
-31 31 -33 34 -145 4 -129 -8 -170 -57 -199 -56 -33 -135 -11 -166 46 -14 26
-16 53 -13 149 3 108 5 118 28 143 33 36 57 46 104 41 27 -3 49 -14 70 -35z"
        />
        <path
            d="M33 358 l-32 -11 25 -49 c30 -59 94 -132 145 -164 20 -12 62 -30 93
-39 56 -16 56 -17 56 -56 0 -39 0 -39 40 -39 40 0 40 0 40 40 0 35 3 40 28 46
106 24 214 107 265 205 l27 54 -36 12 c-21 7 -38 12 -39 11 -1 -2 -13 -24 -28
-50 -74 -129 -218 -187 -350 -142 -58 20 -136 88 -168 148 -13 25 -26 46 -29
45 -3 -1 -19 -6 -37 -11z"
        />
    </g>
</svg>
