<?xml version="1.0" standalone="no"?>
<!DOCTYPE svg PUBLIC "-//W3C//DTD SVG 20010904//EN"
 "http://www.w3.org/TR/2001/REC-SVG-20010904/DTD/svg10.dtd">
<svg version="1.0" xmlns="http://www.w3.org/2000/svg"
 width="80.000000pt" height="72.000000pt" viewBox="0 0 80.000000 72.000000"
 preserveAspectRatio="xMidYMid meet">
<metadata>
Created by potrace 1.16, written by Peter Selinger 2001-2019
</metadata>
<g transform="translate(0.000000,72.000000) scale(0.100000,-0.100000)"
fill="currentColor" stroke="none">
<path d="M54 709 c-51 -25 -54 -46 -54 -349 0 -305 3 -325 55 -348 18 -9 119
-12 346 -12 347 0 363 2 387 55 17 37 17 573 0 610 -24 53 -39 55 -390 54
-195 0 -331 -4 -344 -10z m661 -349 l0 -275 -315 0 -315 0 -3 265 c-1 146 0
270 3 277 3 11 70 13 317 11 l313 -3 0 -275z"/>
<path d="M160 440 l0 -120 120 0 120 0 0 120 0 120 -120 0 -120 0 0 -120z"/>
<path d="M160 200 l0 -40 240 0 240 0 0 40 0 40 -240 0 -240 0 0 -40z"/>
</g>
</svg>
