<?xml version="1.0" standalone="no"?>
<!DOCTYPE svg PUBLIC "-//W3C//DTD SVG 20010904//EN"
 "http://www.w3.org/TR/2001/REC-SVG-20010904/DTD/svg10.dtd">
<svg version="1.0" xmlns="http://www.w3.org/2000/svg"
 width="72.000000pt" height="80.000000pt" viewBox="0 0 72.000000 80.000000"
 preserveAspectRatio="xMidYMid meet">
<metadata>
Created by potrace 1.16, written by Peter Selinger 2001-2019
</metadata>
<g transform="translate(0.000000,80.000000) scale(0.100000,-0.100000)"
fill="currentColor" stroke="none">
<path d="M34 766 l-34 -34 0 -326 c0 -355 2 -370 55 -394 18 -8 110 -12 306
-12 304 0 324 3 347 55 17 37 17 653 0 690 -24 52 -43 55 -354 55 l-286 0 -34
-34z m601 -366 l0 -315 -275 0 -275 0 -3 305 c-1 168 0 311 3 318 3 10 63 12
277 10 l273 -3 0 -315z"/>
<path d="M200 520 l0 -40 160 0 160 0 0 40 0 40 -160 0 -160 0 0 -40z"/>
<path d="M200 360 l0 -40 160 0 160 0 0 40 0 40 -160 0 -160 0 0 -40z"/>
</g>
</svg>
