<?xml version="1.0" standalone="no"?>
<!DOCTYPE svg PUBLIC "-//W3C//DTD SVG 20010904//EN"
 "http://www.w3.org/TR/2001/REC-SVG-20010904/DTD/svg10.dtd">
<svg version="1.0" xmlns="http://www.w3.org/2000/svg"
 width="74.000000pt" height="80.000000pt" viewBox="0 0 74.000000 80.000000"
 preserveAspectRatio="xMidYMid meet">
<metadata>
Created by potrace 1.16, written by Peter Selinger 2001-2019
</metadata>
<g transform="translate(0.000000,80.000000) scale(0.100000,-0.100000)"
fill="currentColor" stroke="none">
<path d="M278 787 c-106 -40 -183 -114 -212 -205 -13 -42 -56 -347 -56 -400 0
-21 5 -22 84 -22 l84 0 7 -31 c15 -68 107 -129 194 -129 73 0 181 84 181 142
0 16 9 18 85 18 l85 0 0 28 c-1 81 -49 382 -68 424 -26 60 -93 127 -156 157
-62 29 -175 38 -228 18z m164 -79 c46 -14 122 -77 145 -121 15 -29 52 -257 53
-319 l0 -28 -270 0 -270 0 0 23 c0 55 32 266 46 304 18 49 96 124 146 140 45
15 103 15 150 1z"/>
</g>
</svg>
