<?xml version="1.0" standalone="no"?>
<!DOCTYPE svg PUBLIC "-//W3C//DTD SVG 20010904//EN"
 "http://www.w3.org/TR/2001/REC-SVG-20010904/DTD/svg10.dtd">
<svg version="1.0" xmlns="http://www.w3.org/2000/svg"
 width="70.000000pt" height="76.000000pt" viewBox="0 0 70.000000 76.000000"
 preserveAspectRatio="xMidYMid meet">
<metadata>
Created by potrace 1.16, written by Peter Selinger 2001-2019
</metadata>
<g transform="translate(0.000000,76.000000) scale(0.100000,-0.100000)"
fill="currentColor" stroke="none">
<path d="M285 746 c-101 -44 -125 -178 -46 -257 112 -113 296 -12 267 146 -18
93 -131 150 -221 111z m120 -91 c16 -15 25 -36 25 -55 0 -19 -9 -40 -25 -55
-15 -16 -36 -25 -55 -25 -19 0 -40 9 -55 25 -50 49 -15 135 55 135 19 0 40 -9
55 -25z"/>
<path d="M255 386 c-120 -38 -193 -122 -230 -263 -8 -31 -15 -72 -15 -90 l0
-33 341 0 342 0 -6 59 c-12 117 -69 223 -149 281 -76 56 -193 74 -283 46z
m219 -100 c48 -28 95 -88 114 -145 22 -64 36 -61 -238 -61 -282 0 -268 -5
-229 80 53 117 125 163 246 156 45 -3 75 -11 107 -30z"/>
</g>
</svg>
