<?xml version="1.0" standalone="no"?>
<!DOCTYPE svg PUBLIC "-//W3C//DTD SVG 20010904//EN" "http://www.w3.org/TR/2001/REC-SVG-20010904/DTD/svg10.dtd">
<svg
    version="1.0"
    xmlns="http://www.w3.org/2000/svg"
    width="76.000000pt"
    height="76.000000pt"
    viewBox="0 0 76.000000 76.000000"
    preserveAspectRatio="xMidYMid meet"
>
    <metadata>
        Created by potrace 1.16, written by Peter Selinger 2001-2019
    </metadata>
    <g
        transform="translate(0.000000,76.000000) scale(0.100000,-0.100000)"
        fill="currentColor"
        stroke="none"
    >
        <path
            d="M575 731 c-8 -38 -51 -81 -87 -88 -39 -8 -38 -39 2 -48 34 -7 90 -67
90 -95 0 -32 37 -25 45 8 9 37 51 80 86 87 40 9 39 41 0 50 -38 8 -81 51 -88
87 -8 39 -39 38 -48 -1z"
        />
        <path
            d="M230 680 c-45 -32 -64 -39 -102 -40 -59 0 -90 -14 -111 -50 -15 -24
-17 -62 -17 -270 0 -262 4 -285 55 -308 41 -19 617 -17 654 2 45 24 51 51 51
246 l0 180 -40 0 -40 0 -2 -177 -3 -178 -295 0 -295 0 0 235 0 235 54 3 c43 3
65 11 112 43 32 21 65 39 73 39 12 0 16 10 16 40 0 37 -2 40 -27 40 -16 -1
-52 -18 -83 -40z"
        />
        <path
            d="M315 486 c-101 -44 -125 -178 -46 -257 65 -65 157 -65 222 0 124 124
-15 327 -176 257z m120 -91 c50 -49 15 -135 -55 -135 -41 0 -80 39 -80 80 0
19 9 40 25 55 15 16 36 25 55 25 19 0 40 -9 55 -25z"
        />
    </g>
</svg>
