<?xml version="1.0" encoding="UTF-8"?>
<!DOCTYPE svg PUBLIC "-//W3C//DTD SVG 1.1//EN" "http://www.w3.org/Graphics/SVG/1.1/DTD/svg11.dtd">
<svg xmlns="http://www.w3.org/2000/svg" version="1.1" width="76px" height="76px" style="shape-rendering:geometricPrecision; text-rendering:geometricPrecision; image-rendering:optimizeQuality; fill-rule:evenodd; clip-rule:evenodd" xmlns:xlink="http://www.w3.org/1999/xlink">
<g><path style="opacity:1" fill="#0d0d0d" d="M 57.5,-0.5 C 58.8333,-0.5 60.1667,-0.5 61.5,-0.5C 62.4723,6.47239 66.4723,10.4724 73.5,11.5C 73.5,12.8333 73.5,14.1667 73.5,15.5C 66.5276,16.4723 62.5276,20.4723 61.5,27.5C 60.1667,27.5 58.8333,27.5 57.5,27.5C 56.5277,20.5276 52.5277,16.5276 45.5,15.5C 45.5,14.1667 45.5,12.8333 45.5,11.5C 52.4724,10.5277 56.4724,6.52765 57.5,-0.5 Z"/></g>
<g><path style="opacity:1" fill="#050505" d="M 75.5,31.5 C 75.5,44.1667 75.5,56.8333 75.5,69.5C 73.8333,71.8333 71.8333,73.8333 69.5,75.5C 48.1667,75.5 26.8333,75.5 5.5,75.5C 3.16667,73.8333 1.16667,71.8333 -0.5,69.5C -0.5,52.1667 -0.5,34.8333 -0.5,17.5C 0.977392,15.193 2.97739,13.3597 5.5,12C 9.16667,11.6667 12.8333,11.3333 16.5,11C 20.1667,8.66667 23.8333,6.33333 27.5,4C 29.4727,3.50454 31.4727,3.33788 33.5,3.5C 33.5,6.16667 33.5,8.83333 33.5,11.5C 28.4533,13.1915 23.7866,15.6915 19.5,19C 15.5787,19.203 11.7454,19.703 8,20.5C 7.17622,36.0744 7.34289,51.5744 8.5,67C 27.8333,67.6667 47.1667,67.6667 66.5,67C 67.4882,55.2473 67.8215,43.4139 67.5,31.5C 70.1667,31.5 72.8333,31.5 75.5,31.5 Z M 35.5,33.5 C 44.0699,34.3162 46.7365,38.6495 43.5,46.5C 36.6865,51.0995 32.0199,49.4329 29.5,41.5C 30.0752,37.6508 32.0752,34.9842 35.5,33.5 Z"/></g>
<g><path style="opacity:1" fill="#0f0f0f" d="M 32.5,25.5 C 47.3137,24.8129 54.147,31.8129 53,46.5C 47.6382,57.4313 39.4716,60.2646 28.5,55C 21.0855,48.7052 19.5855,41.2052 24,32.5C 26.4412,29.5464 29.2745,27.2131 32.5,25.5 Z M 35.5,33.5 C 32.0752,34.9842 30.0752,37.6508 29.5,41.5C 32.0199,49.4329 36.6865,51.0995 43.5,46.5C 46.7365,38.6495 44.0699,34.3162 35.5,33.5 Z"/></g>
</svg>
