<?xml version="1.0" standalone="no"?>
<!DOCTYPE svg PUBLIC "-//W3C//DTD SVG 20010904//EN" "http://www.w3.org/TR/2001/REC-SVG-20010904/DTD/svg10.dtd">
<svg
    version="1.0"
    xmlns="http://www.w3.org/2000/svg"
    width="64.000000pt"
    height="83.000000pt"
    viewBox="0 0 64.000000 83.000000"
    preserveAspectRatio="xMidYMid meet"
>
    <metadata>
        Created by potrace 1.16, written by Peter Selinger 2001-2019
    </metadata>
    <g
        transform="translate(0.000000,83.000000) scale(0.100000,-0.100000)"
        fill="currentColor"
        stroke="none"
    >
        <path
            d="M171 816 c-42 -23 -50 -53 -51 -179 l0 -117 -60 -120 c-33 -66 -60
-122 -60 -125 0 -3 63 -5 140 -5 l140 0 0 -100 c0 -72 5 -109 17 -135 9 -19
20 -35 23 -35 3 0 14 16 23 35 12 26 17 63 17 135 l0 100 140 0 c77 0 140 2
140 5 0 3 -27 59 -60 125 l-60 120 0 114 c0 183 -14 196 -202 196 -83 -1 -131
-5 -147 -14z m269 -201 c5 -122 7 -134 38 -192 17 -34 32 -65 32 -68 0 -3 -85
-5 -190 -5 -104 0 -190 2 -190 5 0 3 16 37 35 75 34 68 35 72 35 188 0 65 3
122 7 126 4 3 57 5 117 4 l111 -3 5 -130z"
        />
    </g>
</svg>
