<?xml version="1.0" standalone="no"?>
<!DOCTYPE svg PUBLIC "-//W3C//DTD SVG 20010904//EN"
 "http://www.w3.org/TR/2001/REC-SVG-20010904/DTD/svg10.dtd">
<svg version="1.0" xmlns="http://www.w3.org/2000/svg"
 width="86.000000pt" height="80.000000pt" viewBox="0 0 86.000000 80.000000"
 preserveAspectRatio="xMidYMid meet">
<metadata>
Created by potrace 1.16, written by Peter Selinger 2001-2019
</metadata>
<g transform="translate(0.000000,80.000000) scale(0.100000,-0.100000)"
fill="currentColor" stroke="none">
<path d="M245 781 c-55 -26 -83 -58 -161 -191 -59 -101 -68 -123 -72 -176 -5
-68 0 -79 96 -244 95 -163 118 -174 349 -168 197 4 200 6 308 190 71 119 79
139 83 194 5 68 -1 81 -94 239 -94 161 -121 175 -326 175 -118 0 -150 -4 -183
-19z m369 -90 c13 -13 55 -75 92 -139 83 -144 84 -159 20 -268 -25 -43 -50
-85 -55 -92 -6 -11 -18 -6 -55 22 -53 40 -128 66 -192 66 -57 0 -147 -34 -191
-73 -28 -25 -36 -28 -44 -16 -5 8 -30 50 -55 93 -65 111 -64 124 25 275 97
164 95 163 283 159 138 -3 148 -4 172 -27z m-87 -516 c64 -32 91 -61 74 -78
-17 -17 -325 -17 -342 0 -18 18 13 50 76 79 66 31 127 31 192 -1z"/>
<path d="M358 599 c-43 -22 -78 -81 -78 -131 0 -46 38 -107 80 -129 129 -69
268 68 201 199 -38 75 -127 102 -203 61z m119 -81 c29 -27 29 -65 1 -95 -27
-29 -65 -29 -95 -1 -31 29 -30 71 3 97 34 27 62 27 91 -1z"/>
</g>
</svg>
