<?xml version="1.0" encoding="UTF-8"?>
<!DOCTYPE svg PUBLIC "-//W3C//DTD SVG 1.1//EN" "http://www.w3.org/Graphics/SVG/1.1/DTD/svg11.dtd">
<svg xmlns="http://www.w3.org/2000/svg" version="1.1" width="86px" height="80px" style="shape-rendering:geometricPrecision; text-rendering:geometricPrecision; image-rendering:optimizeQuality; fill-rule:evenodd; clip-rule:evenodd" xmlns:xlink="http://www.w3.org/1999/xlink">
<g><path style="opacity:1" fill="currentColor" d="M 26.5,-0.5 C 37.1667,-0.5 47.8333,-0.5 58.5,-0.5C 62.346,1.15508 65.846,3.48842 69,6.5C 75.244,16.2047 80.744,26.2047 85.5,36.5C 85.5,38.5 85.5,40.5 85.5,42.5C 80.8232,52.8454 75.3232,62.8454 69,72.5C 65.846,75.5116 62.346,77.8449 58.5,79.5C 47.8333,79.5 37.1667,79.5 26.5,79.5C 22.654,77.8449 19.154,75.5116 16,72.5C 9.75603,62.7953 4.25603,52.7953 -0.5,42.5C -0.5,40.5 -0.5,38.5 -0.5,36.5C 4.25603,26.2047 9.75603,16.2047 16,6.5C 19.154,3.48842 22.654,1.15508 26.5,-0.5 Z M 29.5,7.5 C 38.1731,7.33358 46.8397,7.50025 55.5,8C 58.5478,8.60644 61.0478,10.1064 63,12.5C 66.0812,18.3312 69.4145,23.9979 73,29.5C 76.1105,33.7223 77.1105,38.3889 76,43.5C 72.7524,49.6641 69.2524,55.6641 65.5,61.5C 55.1912,51.2552 43.1912,48.7552 29.5,54C 25.9573,55.6083 22.9573,57.9416 20.5,61C 19.6683,61.6877 19.0016,61.521 18.5,60.5C 15.3333,54.8333 12.1667,49.1667 9,43.5C 8.33333,40.8333 8.33333,38.1667 9,35.5C 13.3333,27.8333 17.6667,20.1667 22,12.5C 24.1699,10.1769 26.6699,8.51027 29.5,7.5 Z M 40.5,25.5 C 48.0182,25.8875 50.5182,29.5542 48,36.5C 42.0225,41.102 37.8559,39.7686 35.5,32.5C 36.0599,29.288 37.7266,26.9547 40.5,25.5 Z M 39.5,59.5 C 48.3029,58.9048 55.3029,62.0715 60.5,69C 58.913,69.8624 57.2464,70.5291 55.5,71C 45.7583,71.9201 36.0916,71.5867 26.5,70C 25.8333,69.6667 25.1667,69.3333 24.5,69C 28.2675,63.7884 33.2675,60.6217 39.5,59.5 Z"/></g>
<g><path style="opacity:1" fill="currentColor" d="M 38.5,17.5 C 55.1508,17.7968 60.6508,25.7968 55,41.5C 46.6353,49.4318 38.302,49.4318 30,41.5C 24.7176,30.4304 27.5509,22.4304 38.5,17.5 Z M 40.5,25.5 C 37.7266,26.9547 36.0599,29.288 35.5,32.5C 37.8559,39.7686 42.0225,41.102 48,36.5C 50.5182,29.5542 48.0182,25.8875 40.5,25.5 Z"/></g>
</svg>
