<?xml version="1.0" standalone="no"?>
<!DOCTYPE svg PUBLIC "-//W3C//DTD SVG 20010904//EN"
 "http://www.w3.org/TR/2001/REC-SVG-20010904/DTD/svg10.dtd">
<svg version="1.0" xmlns="http://www.w3.org/2000/svg"
 width="96.000000pt" height="64.000000pt" viewBox="0 0 96.000000 64.000000"
 preserveAspectRatio="xMidYMid meet">
<metadata>
Created by potrace 1.16, written by Peter Selinger 2001-2019
</metadata>
<g transform="translate(0.000000,64.000000) scale(0.100000,-0.100000)"
fill="currentColor" stroke="none">
<path d="M91 561 c-87 -80 -88 -83 -53 -123 14 -17 18 -16 58 17 l43 35 3
-194 c3 -178 5 -197 24 -222 47 -63 63 -69 215 -72 l139 -4 0 41 0 41 -125 0
c-120 0 -127 1 -150 25 -25 24 -25 26 -25 205 l0 181 43 -35 44 -36 21 23 c12
13 22 28 22 34 0 9 -163 164 -172 163 -2 -1 -41 -36 -87 -79z"/>
<path d="M440 601 l0 -41 125 0 c120 0 127 -1 150 -25 25 -24 25 -26 25 -205
0 -99 -4 -180 -8 -180 -4 0 -23 15 -41 34 l-34 35 -26 -31 -26 -31 85 -79 c46
-43 87 -78 90 -78 3 0 43 35 89 78 l85 78 -24 32 -23 31 -41 -37 -41 -37 -5
197 c-5 179 -7 199 -26 224 -47 63 -63 69 -215 72 l-139 4 0 -41z"/>
</g>
</svg>
