<?xml version="1.0" encoding="UTF-8"?>
<!DOCTYPE svg PUBLIC "-//W3C//DTD SVG 1.1//EN" "http://www.w3.org/Graphics/SVG/1.1/DTD/svg11.dtd">
<svg xmlns="http://www.w3.org/2000/svg" version="1.1" width="96px" height="64px" style="shape-rendering:geometricPrecision; text-rendering:geometricPrecision; image-rendering:optimizeQuality; fill-rule:evenodd; clip-rule:evenodd" xmlns:xlink="http://www.w3.org/1999/xlink">
<g><path style="opacity:1" fill="#0b0b0b" d="M 43.5,-0.5 C 52.5,-0.5 61.5,-0.5 70.5,-0.5C 75.1434,1.97883 78.6434,5.64549 81,10.5C 81.3333,23.1667 81.6667,35.8333 82,48.5C 84.3706,45.794 87.0372,43.4606 90,41.5C 91.7038,43.3734 93.5372,45.0401 95.5,46.5C 95.5,46.8333 95.5,47.1667 95.5,47.5C 89.8071,52.8612 84.1404,58.1946 78.5,63.5C 77.8333,63.5 77.1667,63.5 76.5,63.5C 70.7286,58.2304 65.0619,52.7304 59.5,47C 61.3333,45.1667 63.1667,43.3333 65,41.5C 67.9628,43.4606 70.6294,45.794 73,48.5C 73.6667,36.8333 73.6667,25.1667 73,13.5C 72.1667,10.6667 70.3333,8.83333 67.5,8C 59.5069,7.50029 51.5069,7.33362 43.5,7.5C 43.5,4.83333 43.5,2.16667 43.5,-0.5 Z"/></g>
<g><path style="opacity:1" fill="#0b0b0b" d="M 16.5,-0.5 C 17.1667,-0.5 17.8333,-0.5 18.5,-0.5C 24.2714,4.76959 29.9381,10.2696 35.5,16C 33.6667,17.8333 31.8333,19.6667 30,21.5C 27.0372,19.5394 24.3706,17.206 22,14.5C 21.3333,26.1667 21.3333,37.8333 22,49.5C 22.8333,52.3333 24.6667,54.1667 27.5,55C 35.4931,55.4997 43.4931,55.6664 51.5,55.5C 51.5,58.1667 51.5,60.8333 51.5,63.5C 42.5,63.5 33.5,63.5 24.5,63.5C 19.8566,61.0212 16.3566,57.3545 14,52.5C 13.6667,39.8333 13.3333,27.1667 13,14.5C 10.6294,17.206 7.96276,19.5394 5,21.5C 3.29617,19.6266 1.46283,17.9599 -0.5,16.5C -0.5,16.1667 -0.5,15.8333 -0.5,15.5C 5.19292,10.1388 10.8596,4.80544 16.5,-0.5 Z"/></g>
</svg>
