<?xml version="1.0" encoding="UTF-8"?>
<!DOCTYPE svg PUBLIC "-//W3C//DTD SVG 1.1//EN" "http://www.w3.org/Graphics/SVG/1.1/DTD/svg11.dtd">
<svg xmlns="http://www.w3.org/2000/svg" version="1.1" width="80px" height="80px" style="shape-rendering:geometricPrecision; text-rendering:geometricPrecision; image-rendering:optimizeQuality; fill-rule:evenodd; clip-rule:evenodd" xmlns:xlink="http://www.w3.org/1999/xlink">
<g><path style="opacity:1" fill="currentColor" d="M 66.5,-0.5 C 70.8333,-0.5 75.1667,-0.5 79.5,-0.5C 79.5,2.83333 79.5,6.16667 79.5,9.5C 78.3448,17.4685 75.8448,25.1351 72,32.5C 68,36.5 64,40.5 60,44.5C 59.8313,51.8559 59.3313,59.1892 58.5,66.5C 51.8333,69.8333 45.1667,73.1667 38.5,76.5C 33.0488,58.0482 21.0488,46.3815 2.5,41.5C 5.14044,34.0502 8.47377,26.8835 12.5,20C 19.5,19.6667 26.5,19.3333 33.5,19C 41.8821,7.81804 52.8821,1.31804 66.5,-0.5 Z M 66.5,8.5 C 68.4832,8.15684 69.8166,8.82351 70.5,10.5C 69.9739,16.5787 68.1405,22.2453 65,27.5C 56.2275,37.2783 46.5609,45.945 36,53.5C 33.0196,49.3525 29.5196,45.6859 25.5,42.5C 32.5377,31.9693 40.871,22.4693 50.5,14C 55.4351,11.077 60.7684,9.24364 66.5,8.5 Z M 17.5,27.5 C 20.5184,27.3354 23.5184,27.502 26.5,28C 23.9925,31.673 20.9925,34.8397 17.5,37.5C 16.062,37.2811 14.7287,36.7811 13.5,36C 15.2465,33.3413 16.5798,30.508 17.5,27.5 Z M 50.5,52.5 C 53.2881,60.1001 50.6215,63.9334 42.5,64C 41.8333,63 41.1667,62 40.5,61C 44.0247,58.302 47.3581,55.4686 50.5,52.5 Z"/></g>
<g><path style="opacity:0.302" fill="currentColor" d="M 66.5,8.5 C 67.9187,7.54885 69.5853,7.21552 71.5,7.5C 71.7373,8.79105 71.404,9.79105 70.5,10.5C 69.8166,8.82351 68.4832,8.15684 66.5,8.5 Z"/></g>
<g><path style="opacity:1" fill="currentColor" d="M 15.5,79.5 C 10.1667,79.5 4.83333,79.5 -0.5,79.5C -0.5,74.1667 -0.5,68.8333 -0.5,63.5C 4.23933,55.2258 10.906,53.3924 19.5,58C 25.7705,66.7099 24.4372,73.8765 15.5,79.5 Z M 9.5,63.5 C 15.5006,63.7414 16.8339,66.2414 13.5,71C 11.5273,71.4955 9.5273,71.6621 7.5,71.5C 7.28262,68.5794 7.94929,65.9128 9.5,63.5 Z"/></g>
</svg>
