<?xml version="1.0" encoding="UTF-8"?>
<!DOCTYPE svg PUBLIC "-//W3C//DTD SVG 1.1//EN" "http://www.w3.org/Graphics/SVG/1.1/DTD/svg11.dtd">
<svg xmlns="http://www.w3.org/2000/svg" version="1.1" width="80px" height="80px" style="shape-rendering:geometricPrecision; text-rendering:geometricPrecision; image-rendering:optimizeQuality; fill-rule:evenodd; clip-rule:evenodd" xmlns:xlink="http://www.w3.org/1999/xlink">
<g><path style="opacity:1" fill="currentColor" d="M 31.5,-0.5 C 36.5,-0.5 41.5,-0.5 46.5,-0.5C 63.3895,4.05568 74.3895,14.7223 79.5,31.5C 79.5,36.5 79.5,41.5 79.5,46.5C 77.4757,56.3629 72.4757,64.5295 64.5,71C 69.4889,71.4993 74.4889,71.6659 79.5,71.5C 79.5,74.1667 79.5,76.8333 79.5,79.5C 63.8333,79.5 48.1667,79.5 32.5,79.5C 15.6105,74.9443 4.61049,64.2777 -0.5,47.5C -0.5,42.5 -0.5,37.5 -0.5,32.5C 4.05568,15.6105 14.7223,4.61049 31.5,-0.5 Z M 35.5,7.5 C 51.1217,6.88766 62.2884,13.5543 69,27.5C 74.8869,52.7296 65.0536,67.3963 39.5,71.5C 15.7542,67.9222 5.5875,54.2556 9,30.5C 13.7021,17.9579 22.5355,10.2912 35.5,7.5 Z"/></g>
<g><path style="opacity:1" fill="currentColor" d="M 36.5,15.5 C 44.6577,14.8229 48.1577,18.4895 47,26.5C 44.7742,30.8608 41.2742,32.3608 36.5,31C 32.1392,28.7742 30.6392,25.2742 32,20.5C 33.025,18.313 34.525,16.6464 36.5,15.5 Z"/></g>
<g><path style="opacity:1" fill="currentColor" d="M 20.5,31.5 C 28.6577,30.8229 32.1577,34.4895 31,42.5C 28.7742,46.8608 25.2742,48.3608 20.5,47C 16.1392,44.7742 14.6392,41.2742 16,36.5C 17.025,34.313 18.525,32.6464 20.5,31.5 Z"/></g>
<g><path style="opacity:1" fill="currentColor" d="M 52.5,31.5 C 60.6577,30.8229 64.1577,34.4895 63,42.5C 60.7742,46.8608 57.2742,48.3608 52.5,47C 48.1392,44.7742 46.6392,41.2742 48,36.5C 49.025,34.313 50.525,32.6464 52.5,31.5 Z"/></g>
<g><path style="opacity:1" fill="currentColor" d="M 36.5,47.5 C 44.6577,46.8229 48.1577,50.4895 47,58.5C 44.7742,62.8608 41.2742,64.3608 36.5,63C 32.1392,60.7742 30.6392,57.2742 32,52.5C 33.025,50.313 34.525,48.6464 36.5,47.5 Z"/></g>
</svg>
