<?xml version="1.0" standalone="no"?>
<!DOCTYPE svg PUBLIC "-//W3C//DTD SVG 20010904//EN" "http://www.w3.org/TR/2001/REC-SVG-20010904/DTD/svg10.dtd">
<svg
    version="1.0"
    xmlns="http://www.w3.org/2000/svg"
    width="80.000000pt"
    height="80.000000pt"
    viewBox="0 0 80.000000 80.000000"
    preserveAspectRatio="xMidYMid meet"
>
    <metadata>
        Created by potrace 1.16, written by Peter Selinger 2001-2019
    </metadata>
    <g
        transform="translate(0.000000,80.000000) scale(0.100000,-0.100000)"
        fill="currentColor"
        stroke="none"
    >
        <path
            d="M306 790 c-63 -16 -153 -70 -197 -117 -22 -24 -55 -74 -72 -111 -29
-61 -32 -76 -32 -163 0 -90 2 -99 38 -171 56 -115 150 -190 269 -218 24 -5
143 -10 266 -10 l222 0 0 40 0 40 -76 0 -76 0 45 50 c114 127 137 294 62 446
-65 132 -187 213 -333 220 -42 2 -94 -1 -116 -6z m227 -100 c63 -30 127 -93
157 -155 36 -71 35 -198 0 -270 -31 -64 -92 -124 -155 -156 -41 -20 -65 -24
-135 -24 -100 1 -160 24 -226 90 -205 205 -48 557 241 542 46 -3 87 -12 118
-27z"
        />
        <path
            d="M345 615 c-16 -15 -25 -36 -25 -55 0 -19 9 -40 25 -55 15 -16 36 -25
55 -25 70 0 105 86 55 135 -15 16 -36 25 -55 25 -19 0 -40 -9 -55 -25z"
        />
        <path
            d="M185 455 c-50 -49 -15 -135 55 -135 41 0 80 39 80 80 0 41 -39 80
-80 80 -19 0 -40 -9 -55 -25z"
        />
        <path
            d="M505 455 c-16 -15 -25 -36 -25 -55 0 -19 9 -40 25 -55 15 -16 36 -25
55 -25 19 0 40 9 55 25 16 15 25 36 25 55 0 19 -9 40 -25 55 -15 16 -36 25
-55 25 -19 0 -40 -9 -55 -25z"
        />
        <path
            d="M345 295 c-50 -49 -15 -135 55 -135 41 0 80 39 80 80 0 41 -39 80
-80 80 -19 0 -40 -9 -55 -25z"
        />
    </g>
</svg>
