<?xml version="1.0" standalone="no"?>
<!DOCTYPE svg PUBLIC "-//W3C//DTD SVG 20010904//EN"
 "http://www.w3.org/TR/2001/REC-SVG-20010904/DTD/svg10.dtd">
<svg version="1.0" xmlns="http://www.w3.org/2000/svg"
 width="80.000000pt" height="80.000000pt" viewBox="0 0 80.000000 80.000000"
 preserveAspectRatio="xMidYMid meet">
<metadata>
Created by potrace 1.16, written by Peter Selinger 2001-2019
</metadata>
<g transform="translate(0.000000,80.000000) scale(0.100000,-0.100000)"
fill="currentColor" stroke="none">
<path d="M243 786 c-59 -19 -104 -49 -153 -102 -65 -70 -85 -123 -85 -224 0
-74 4 -93 29 -144 37 -75 93 -131 165 -165 47 -22 70 -26 141 -26 76 0 93 4
150 32 l65 32 90 -89 c50 -50 95 -90 100 -90 5 0 19 10 32 22 l24 22 -95 96
-95 95 32 65 c29 57 32 73 32 150 0 103 -21 155 -91 230 -64 68 -136 102 -227
106 -43 2 -89 -2 -114 -10z m212 -94 c47 -24 95 -73 121 -122 26 -49 26 -171
0 -220 -26 -49 -74 -98 -121 -123 -31 -17 -58 -22 -115 -22 -85 0 -133 20
-186 77 -54 57 -69 95 -69 178 0 83 15 121 69 178 31 34 70 58 116 73 41 14
142 3 185 -19z"/>
</g>
</svg>
