<?xml version="1.0" encoding="UTF-8"?>
<!DOCTYPE svg PUBLIC "-//W3C//DTD SVG 1.1//EN" "http://www.w3.org/Graphics/SVG/1.1/DTD/svg11.dtd">
<svg xmlns="http://www.w3.org/2000/svg" version="1.1" width="82px" height="82px" style="shape-rendering:geometricPrecision; text-rendering:geometricPrecision; image-rendering:optimizeQuality; fill-rule:evenodd; clip-rule:evenodd" xmlns:xlink="http://www.w3.org/1999/xlink">
<g><path style="opacity:1" fill="currentColor" d="M 34.5,-0.5 C 38.5,-0.5 42.5,-0.5 46.5,-0.5C 48.6487,3.49646 51.4821,6.8298 55,9.5C 58.4682,8.41927 61.9682,7.91927 65.5,8C 68,10.5 70.5,13 73,15.5C 73.0807,19.0318 72.5807,22.5318 71.5,26C 74.1702,29.5179 77.5035,32.3513 81.5,34.5C 81.5,38.5 81.5,42.5 81.5,46.5C 77.5035,48.6487 74.1702,51.4821 71.5,55C 72.5807,58.4682 73.0807,61.9682 73,65.5C 70.5,68 68,70.5 65.5,73C 61.9682,73.0807 58.4682,72.5807 55,71.5C 51.4821,74.1702 48.6487,77.5035 46.5,81.5C 42.5,81.5 38.5,81.5 34.5,81.5C 32.3513,77.5035 29.5179,74.1702 26,71.5C 22.5318,72.5807 19.0318,73.0807 15.5,73C 13,70.5 10.5,68 8,65.5C 7.91927,61.9682 8.41927,58.4682 9.5,55C 6.8298,51.4821 3.49646,48.6487 -0.5,46.5C -0.5,42.5 -0.5,38.5 -0.5,34.5C 3.49646,32.3513 6.8298,29.5179 9.5,26C 8.41927,22.5318 7.91927,19.0318 8,15.5C 10.5,13 13,10.5 15.5,8C 19.0318,7.91927 22.5318,8.41927 26,9.5C 29.5179,6.8298 32.3513,3.49646 34.5,-0.5 Z M 38.5,7.5 C 39.9778,7.23798 41.3112,7.57131 42.5,8.5C 46.7189,17.3756 53.3856,20.2089 62.5,17C 63.5742,17.7387 64.2409,18.7387 64.5,20C 63.438,23.7894 63.2713,27.6227 64,31.5C 67.1548,34.6337 70.3214,37.6337 73.5,40.5C 70.3214,43.3663 67.1548,46.3663 64,49.5C 63.5431,53.8823 63.5431,58.2157 64,62.5C 63.2613,63.5742 62.2613,64.2409 61,64.5C 57.067,62.8221 53.2337,62.6555 49.5,64C 46.3663,67.1548 43.3663,70.3214 40.5,73.5C 37.6337,70.3214 34.6337,67.1548 31.5,64C 29.7818,63.654 28.1151,63.154 26.5,62.5C 17.2139,66.0462 14.5472,63.2128 18.5,54C 17.7734,52.6012 17.2734,51.1012 17,49.5C 13.8452,46.3663 10.6786,43.3663 7.5,40.5C 10.6786,37.6337 13.8452,34.6337 17,31.5C 17.346,29.7818 17.846,28.1151 18.5,26.5C 14.9538,17.2139 17.7872,14.5472 27,18.5C 32.6171,16.7166 36.4504,13.0499 38.5,7.5 Z M 38.5,34.5 C 44.3296,34.1605 46.8296,36.8272 46,42.5C 42.3333,47.8333 38.6667,47.8333 35,42.5C 34.2793,38.9463 35.4459,36.2796 38.5,34.5 Z"/></g>
<g><path style="opacity:1" fill="currentColor" d="M 36.5,26.5 C 49.6524,25.4848 55.4857,31.4848 54,44.5C 51.0529,52.7215 45.2196,55.8882 36.5,54C 27.273,50.0157 24.4396,43.1823 28,33.5C 30.217,30.3227 33.0503,27.9893 36.5,26.5 Z M 38.5,34.5 C 35.4459,36.2796 34.2793,38.9463 35,42.5C 38.6667,47.8333 42.3333,47.8333 46,42.5C 46.8296,36.8272 44.3296,34.1605 38.5,34.5 Z"/></g>
</svg>
