<?xml version="1.0" encoding="UTF-8"?>
<!DOCTYPE svg PUBLIC "-//W3C//DTD SVG 1.1//EN" "http://www.w3.org/Graphics/SVG/1.1/DTD/svg11.dtd">
<svg xmlns="http://www.w3.org/2000/svg" version="1.1" width="84px" height="84px" style="shape-rendering:geometricPrecision; text-rendering:geometricPrecision; image-rendering:optimizeQuality; fill-rule:evenodd; clip-rule:evenodd" xmlns:xlink="http://www.w3.org/1999/xlink">
<g><path style="opacity:1" fill="#0f0f0f" d="M 11.5,-0.5 C 12.8333,-0.5 14.1667,-0.5 15.5,-0.5C 16.5098,6.50977 20.5098,10.5098 27.5,11.5C 27.5,12.8333 27.5,14.1667 27.5,15.5C 20.5,16.5 16.5,20.5 15.5,27.5C 14.1667,27.5 12.8333,27.5 11.5,27.5C 10.5277,20.5276 6.52765,16.5276 -0.5,15.5C -0.5,14.1667 -0.5,12.8333 -0.5,11.5C 6.47239,10.5277 10.4724,6.52765 11.5,-0.5 Z"/></g>
<g><path style="opacity:1" fill="#0f0f0f" d="M 83.5,39.5 C 83.5,42.1667 83.5,44.8333 83.5,47.5C 59.1588,47.1745 47.1588,59.1745 47.5,83.5C 44.8333,83.5 42.1667,83.5 39.5,83.5C 39.8255,59.1588 27.8255,47.1588 3.5,47.5C 3.5,44.8333 3.5,42.1667 3.5,39.5C 27.8412,39.8255 39.8412,27.8255 39.5,3.5C 42.1667,3.5 44.8333,3.5 47.5,3.5C 47.1745,27.8412 59.1745,39.8412 83.5,39.5 Z M 42.5,28.5 C 47.1105,34.1055 52.4438,39.1055 58.5,43.5C 52.5,47.5 47.5,52.5 43.5,58.5C 39.5,52.5 34.5,47.5 28.5,43.5C 34.5945,39.742 39.2612,34.742 42.5,28.5 Z"/></g>
</svg>
