<?xml version="1.0" standalone="no"?>
<!DOCTYPE svg PUBLIC "-//W3C//DTD SVG 20010904//EN" "http://www.w3.org/TR/2001/REC-SVG-20010904/DTD/svg10.dtd">
<svg
    version="1.0"
    xmlns="http://www.w3.org/2000/svg"
    width="84.000000pt"
    height="84.000000pt"
    viewBox="0 0 84.000000 84.000000"
    preserveAspectRatio="xMidYMid meet"
>
    <metadata>
        Created by potrace 1.16, written by Peter Selinger 2001-2019
    </metadata>
    <g
        transform="translate(0.000000,84.000000) scale(0.100000,-0.100000)"
        fill="currentColor"
        stroke="none"
    >
        <path
            d="M117 812 c-7 -36 -53 -82 -89 -89 -39 -8 -38 -39 2 -48 34 -7 90 -67
90 -95 0 -32 37 -25 45 8 9 37 51 80 86 87 40 9 39 41 0 50 -38 8 -78 48 -86
86 -9 39 -40 40 -48 1z"
        />
        <path
            d="M400 765 c0 -18 -5 -58 -11 -87 -32 -151 -114 -218 -286 -235 l-63
-6 0 -38 c0 -38 1 -39 38 -39 112 -1 226 -54 268 -126 30 -51 54 -138 54 -196
0 -38 0 -38 40 -38 40 0 40 0 40 38 0 58 24 145 54 196 42 72 156 125 269 126
37 0 37 0 37 40 0 39 -1 40 -35 40 -18 0 -58 5 -87 11 -151 32 -218 114 -235
287 l-6 62 -38 0 c-38 0 -39 -1 -39 -35z m75 -253 c17 -26 51 -60 77 -77 26
-16 47 -32 47 -35 0 -3 -21 -18 -47 -35 -26 -16 -60 -51 -77 -77 -16 -26 -32
-47 -35 -47 -3 0 -18 21 -35 47 -16 26 -51 61 -77 77 -26 17 -47 32 -47 35 0
3 21 19 47 35 26 17 61 51 77 77 17 26 32 47 35 47 3 0 19 -21 35 -47z"
        />
    </g>
</svg>
