<?xml version="1.0" standalone="no"?>
<!DOCTYPE svg PUBLIC "-//W3C//DTD SVG 20010904//EN" "http://www.w3.org/TR/2001/REC-SVG-20010904/DTD/svg10.dtd">
<svg
    version="1.0"
    xmlns="http://www.w3.org/2000/svg"
    width="88.000000pt"
    height="88.000000pt"
    viewBox="0 0 88.000000 88.000000"
    preserveAspectRatio="xMidYMid meet"
>
    <metadata>
        Created by potrace 1.16, written by Peter Selinger 2001-2019
    </metadata>
    <g
        transform="translate(0.000000,88.000000) scale(0.100000,-0.100000)"
        fill="currentColor"
        stroke="none"
    >
        <path
            d="M386 754 l-159 -114 -73 0 c-136 0 -154 -24 -154 -200 0 -177 18
-200 154 -200 l73 0 161 -115 c88 -63 163 -115 166 -115 3 0 6 193 6 430 0
237 -3 430 -7 429 -5 0 -80 -52 -167 -115z m92 -454 l-3 -140 -95 68 -95 68
-3 141 -3 142 98 70 98 70 3 -140 c1 -76 1 -202 0 -279z m-278 140 l0 -121
-57 3 -58 3 -3 104 c-1 58 0 111 2 118 4 9 24 13 61 13 l55 0 0 -120z"
        />
        <path
            d="M707 699 l-17 -31 40 -45 c42 -48 70 -121 70 -183 0 -62 -28 -135
-70 -183 l-40 -45 17 -31 c21 -36 21 -36 49 -13 116 97 155 276 89 419 -22 49
-98 143 -115 143 -3 0 -13 -14 -23 -31z"
        />
        <path
            d="M626 556 c-17 -32 -17 -36 -2 -57 20 -29 20 -75 0 -114 -14 -27 -13
-32 3 -62 10 -18 21 -33 25 -33 4 0 19 17 33 38 31 47 41 117 25 168 -13 41
-46 94 -58 94 -4 0 -16 -15 -26 -34z"
        />
    </g>
</svg>
