<?xml version="1.0" encoding="UTF-8"?>
<!DOCTYPE svg PUBLIC "-//W3C//DTD SVG 1.1//EN" "http://www.w3.org/Graphics/SVG/1.1/DTD/svg11.dtd">
<svg xmlns="http://www.w3.org/2000/svg" version="1.1" width="88px" height="88px" style="shape-rendering:geometricPrecision; text-rendering:geometricPrecision; image-rendering:optimizeQuality; fill-rule:evenodd; clip-rule:evenodd" xmlns:xlink="http://www.w3.org/1999/xlink">
<g><path style="opacity:1" fill="currentColor" d="M 54.5,-0.5 C 54.8333,-0.5 55.1667,-0.5 55.5,-0.5C 55.5,28.8333 55.5,58.1667 55.5,87.5C 55.1667,87.5 54.8333,87.5 54.5,87.5C 44.0786,79.4436 33.4119,71.6102 22.5,64C 16.8333,63.6667 11.1667,63.3333 5.5,63C 2.97739,61.6403 0.977392,59.807 -0.5,57.5C -0.5,48.1667 -0.5,38.8333 -0.5,29.5C 0.977392,27.193 2.97739,25.3597 5.5,24C 11.9418,23.9173 18.2752,23.2507 24.5,22C 34.6837,14.6366 44.6837,7.13662 54.5,-0.5 Z M 46.5,15.5 C 47.6622,33.9955 47.8288,52.6621 47,71.5C 40.9479,66.4474 34.6146,61.7807 28,57.5C 27.3333,48.1667 27.3333,38.8333 28,29.5C 34.3247,24.9343 40.4913,20.2677 46.5,15.5 Z M 8.5,31.5 C 12.1667,31.5 15.8333,31.5 19.5,31.5C 19.5,39.5 19.5,47.5 19.5,55.5C 15.5633,55.7935 11.73,55.4601 8,54.5C 7.20194,46.754 7.3686,39.0873 8.5,31.5 Z"/></g>
<g><path style="opacity:1" fill="currentColor" d="M 87.5,36.5 C 87.5,41.1667 87.5,45.8333 87.5,50.5C 85.4907,59.8458 80.4907,67.1792 72.5,72.5C 70.7745,70.7721 69.4411,68.7721 68.5,66.5C 83.1626,51.1472 83.1626,35.8138 68.5,20.5C 70.3399,13.3262 73.5066,12.6595 78,18.5C 82.5197,23.8765 85.6864,29.8765 87.5,36.5 Z"/></g>
<g><path style="opacity:1" fill="currentColor" d="M 63.5,28.5 C 65.371,28.8588 66.871,29.8588 68,31.5C 71.7032,37.865 72.3698,44.5316 70,51.5C 66.7582,60.2574 63.5915,60.424 60.5,52C 64.4886,46.2952 64.4886,40.6286 60.5,35C 61.3773,32.7473 62.3773,30.5806 63.5,28.5 Z"/></g>
</svg>
