<?xml version="1.0" encoding="UTF-8"?>
<!DOCTYPE svg PUBLIC "-//W3C//DTD SVG 1.1//EN" "http://www.w3.org/Graphics/SVG/1.1/DTD/svg11.dtd">
<svg xmlns="http://www.w3.org/2000/svg" version="1.1" width="72px" height="74px" style="shape-rendering:geometricPrecision; text-rendering:geometricPrecision; image-rendering:optimizeQuality; fill-rule:evenodd; clip-rule:evenodd" xmlns:xlink="http://www.w3.org/1999/xlink">
<g><path style="opacity:1" fill="#0c0c0c" d="M 28.5,-0.5 C 33.1667,-0.5 37.8333,-0.5 42.5,-0.5C 56.5674,3.23295 66.2341,11.8996 71.5,25.5C 71.5,26.1667 71.5,26.8333 71.5,27.5C 69.1346,28.0084 66.8013,28.6751 64.5,29.5C 54.661,8.40556 39.3277,2.90556 18.5,13C 16.1667,15.3333 13.8333,17.6667 11.5,20C 15.4862,20.4988 19.4862,20.6655 23.5,20.5C 23.5,23.1667 23.5,25.8333 23.5,28.5C 15.5,28.5 7.5,28.5 -0.5,28.5C -0.5,20.5 -0.5,12.5 -0.5,4.5C 2.16667,4.5 4.83333,4.5 7.5,4.5C 7.33669,6.85684 7.50335,9.19018 8,11.5C 13.7732,5.53549 20.6066,1.53549 28.5,-0.5 Z"/></g>
<g><path style="opacity:1" fill="#0e0e0e" d="M 32.5,28.5 C 40.6577,27.8229 44.1577,31.4895 43,39.5C 40.7742,43.8608 37.2742,45.3608 32.5,44C 28.1392,41.7742 26.6392,38.2742 28,33.5C 29.025,31.313 30.525,29.6464 32.5,28.5 Z"/></g>
<g><path style="opacity:1" fill="#0c0c0c" d="M 71.5,44.5 C 71.5,52.5 71.5,60.5 71.5,68.5C 68.8333,68.5 66.1667,68.5 63.5,68.5C 63.6633,66.1432 63.4966,63.8098 63,61.5C 57.2268,67.4645 50.3934,71.4645 42.5,73.5C 37.8333,73.5 33.1667,73.5 28.5,73.5C 14.4326,69.7671 4.7659,61.1004 -0.5,47.5C -0.5,46.8333 -0.5,46.1667 -0.5,45.5C 1.86538,44.9916 4.19871,44.3249 6.5,43.5C 16.339,64.5944 31.6723,70.0944 52.5,60C 54.8333,57.6667 57.1667,55.3333 59.5,53C 55.5138,52.5012 51.5138,52.3345 47.5,52.5C 47.5,49.8333 47.5,47.1667 47.5,44.5C 55.5,44.5 63.5,44.5 71.5,44.5 Z"/></g>
</svg>
