<?xml version="1.0" standalone="no"?>
<!DOCTYPE svg PUBLIC "-//W3C//DTD SVG 20010904//EN"
 "http://www.w3.org/TR/2001/REC-SVG-20010904/DTD/svg10.dtd">
<svg version="1.0" xmlns="http://www.w3.org/2000/svg"
 width="146.000000pt" height="146.000000pt" viewBox="0 0 146.000000 146.000000"
 preserveAspectRatio="xMidYMid meet">
<metadata>
Created by potrace 1.16, written by Peter Selinger 2001-2019
</metadata>
<g transform="translate(0.000000,146.000000) scale(0.100000,-0.100000)"
fill="currentColor" stroke="none">
<path d="M630 1450 c-281 -35 -518 -241 -606 -525 -28 -94 -26 -296 4 -395 36
-116 88 -204 169 -291 145 -154 315 -229 520 -229 195 0 362 64 498 192 292
273 312 725 44 1012 -78 83 -159 144 -242 181 -111 48 -265 70 -387 55z m235
-155 c106 -27 184 -72 266 -154 116 -116 173 -251 173 -411 0 -317 -263 -581
-579 -580 -254 1 -481 169 -558 415 -33 106 -30 254 8 354 35 97 69 149 140
222 108 110 245 168 400 169 50 0 118 -7 150 -15z"/>
<path d="M329 791 c-35 -35 -38 -77 -9 -113 62 -79 185 -6 146 86 -26 63 -89
75 -137 27z"/>
<path d="M666 795 c-58 -54 -19 -150 61 -148 77 2 109 88 54 144 -37 37 -78
38 -115 4z"/>
<path d="M999 791 c-69 -70 -1 -171 94 -139 57 20 69 109 19 148 -36 29 -78
26 -113 -9z"/>
</g>
</svg>
