<?xml version="1.0" encoding="UTF-8"?>
<!DOCTYPE svg PUBLIC "-//W3C//DTD SVG 1.1//EN" "http://www.w3.org/Graphics/SVG/1.1/DTD/svg11.dtd">
<svg xmlns="http://www.w3.org/2000/svg" version="1.1" width="72px" height="80px" style="shape-rendering:geometricPrecision; text-rendering:geometricPrecision; image-rendering:optimizeQuality; fill-rule:evenodd; clip-rule:evenodd" xmlns:xlink="http://www.w3.org/1999/xlink">
<g><path style="opacity:1" fill="#0b0b0b" d="M 25.5,-0.5 C 32.1667,-0.5 38.8333,-0.5 45.5,-0.5C 50.9897,3.31981 52.9897,8.65314 51.5,15.5C 58.1667,15.5 64.8333,15.5 71.5,15.5C 71.5,18.1667 71.5,20.8333 71.5,23.5C 70.1667,23.5 68.8333,23.5 67.5,23.5C 66.3812,38.8301 65.2145,54.1635 64,69.5C 62.7108,74.2791 59.8775,77.6125 55.5,79.5C 41.8333,79.5 28.1667,79.5 14.5,79.5C 11.1416,77.3003 8.64156,74.3003 7,70.5C 5.83286,54.8264 4.66619,39.1597 3.5,23.5C 2.16667,23.5 0.833333,23.5 -0.5,23.5C -0.5,20.8333 -0.5,18.1667 -0.5,15.5C 6.16667,15.5 12.8333,15.5 19.5,15.5C 18.0103,8.65314 20.0103,3.31981 25.5,-0.5 Z M 28.5,7.5 C 33.1785,7.33418 37.8452,7.50085 42.5,8C 43.435,10.3806 43.7683,12.8806 43.5,15.5C 38.1667,15.5 32.8333,15.5 27.5,15.5C 27.2786,12.7212 27.612,10.0545 28.5,7.5 Z M 12.5,23.5 C 27.8333,23.5 43.1667,23.5 58.5,23.5C 58.1376,38.9074 56.971,54.2408 55,69.5C 54.5,70 54,70.5 53.5,71C 41.5,71.6667 29.5,71.6667 17.5,71C 17,70.5 16.5,70 16,69.5C 14.029,54.2408 12.8624,38.9074 12.5,23.5 Z"/></g>
<g><path style="opacity:1" fill="#000000" d="M 23.5,35.5 C 26.1667,35.5 28.8333,35.5 31.5,35.5C 31.5,43.5 31.5,51.5 31.5,59.5C 28.8333,59.5 26.1667,59.5 23.5,59.5C 23.5,51.5 23.5,43.5 23.5,35.5 Z"/></g>
<g><path style="opacity:1" fill="#000000" d="M 39.5,35.5 C 42.1667,35.5 44.8333,35.5 47.5,35.5C 47.5,43.5 47.5,51.5 47.5,59.5C 44.8333,59.5 42.1667,59.5 39.5,59.5C 39.5,51.5 39.5,43.5 39.5,35.5 Z"/></g>
</svg>
