<?xml version="1.0" standalone="no"?>
<!DOCTYPE svg PUBLIC "-//W3C//DTD SVG 20010904//EN" "http://www.w3.org/TR/2001/REC-SVG-20010904/DTD/svg10.dtd">
<svg
    version="1.0"
    xmlns="http://www.w3.org/2000/svg"
    width="80.000000pt"
    height="64.000000pt"
    viewBox="0 0 80.000000 64.000000"
    preserveAspectRatio="xMidYMid meet"
>
    <metadata>
        Created by potrace 1.16, written by Peter Selinger 2001-2019
    </metadata>
    <g
        transform="translate(0.000000,64.000000) scale(0.100000,-0.100000)"
        fill="currentColor"
        stroke="none"
    >
        <path
            d="M34 606 l-34 -34 0 -246 c0 -268 4 -291 55 -314 40 -19 497 -17 534
2 34 18 51 54 51 111 0 25 2 45 5 45 3 0 37 -16 75 -35 38 -19 72 -35 75 -35
3 0 5 99 5 220 0 121 -2 220 -5 220 -3 0 -37 -16 -75 -35 -38 -19 -72 -35 -75
-35 -3 0 -5 20 -5 45 0 24 -5 56 -12 70 -23 51 -46 55 -314 55 l-246 0 -34
-34z m521 -286 l0 -235 -235 0 -235 0 -3 225 c-1 123 0 230 3 237 3 11 54 13
237 11 l233 -3 0 -235z"
        />
        <path
            d="M252 464 c-18 -10 -45 -33 -60 -52 -22 -29 -27 -46 -27 -92 0 -47 5
-63 29 -94 68 -90 190 -86 260 8 29 39 29 133 0 172 -50 67 -135 92 -202 58z
m123 -89 c50 -49 15 -135 -55 -135 -41 0 -80 39 -80 80 0 41 39 80 80 80 19 0
40 -9 55 -25z"
        />
    </g>
</svg>
