<?xml version="1.0" encoding="UTF-8"?>
<!DOCTYPE svg PUBLIC "-//W3C//DTD SVG 1.1//EN" "http://www.w3.org/Graphics/SVG/1.1/DTD/svg11.dtd">
<svg xmlns="http://www.w3.org/2000/svg" version="1.1" width="80px" height="64px" style="shape-rendering:geometricPrecision; text-rendering:geometricPrecision; image-rendering:optimizeQuality; fill-rule:evenodd; clip-rule:evenodd" xmlns:xlink="http://www.w3.org/1999/xlink">
<g><path style="opacity:1" fill="#040404" d="M 5.5,-0.5 C 22.8333,-0.5 40.1667,-0.5 57.5,-0.5C 59.807,0.977392 61.6403,2.97739 63,5.5C 63.1747,9.21098 63.6747,12.8776 64.5,16.5C 69.4014,13.8817 74.4014,11.5484 79.5,9.5C 79.5,24.1667 79.5,38.8333 79.5,53.5C 74.4014,51.4516 69.4014,49.1183 64.5,46.5C 63.6747,50.1224 63.1747,53.789 63,57.5C 61.6403,60.0226 59.807,62.0226 57.5,63.5C 40.1667,63.5 22.8333,63.5 5.5,63.5C 3.16667,61.8333 1.16667,59.8333 -0.5,57.5C -0.5,40.1667 -0.5,22.8333 -0.5,5.5C 1.16667,3.16667 3.16667,1.16667 5.5,-0.5 Z M 8.5,7.5 C 24.0779,7.17562 39.5779,7.50895 55,8.5C 55.8238,24.0744 55.6571,39.5744 54.5,55C 38.9256,55.8238 23.4256,55.6571 8,54.5C 7.18348,38.7591 7.35014,23.0924 8.5,7.5 Z M 69.5,22.5 C 70.8164,25.0866 71.483,28.0866 71.5,31.5C 71.1667,34.5 70.8333,37.5 70.5,40.5C 68.5,39.5 66.5,38.5 64.5,37.5C 63.1667,33.5 63.1667,29.5 64.5,25.5C 66.3964,24.7255 68.063,23.7255 69.5,22.5 Z M 29.5,23.5 C 38.0699,24.3162 40.7365,28.6495 37.5,36.5C 30.6865,41.0995 26.0199,39.4329 23.5,31.5C 24.0752,27.6508 26.0752,24.9842 29.5,23.5 Z"/></g>
<g><path style="opacity:1" fill="#101010" d="M 26.5,15.5 C 41.3137,14.8129 48.147,21.8129 47,36.5C 41.6382,47.4313 33.4716,50.2646 22.5,45C 15.0855,38.7052 13.5855,31.2052 18,22.5C 20.4412,19.5464 23.2745,17.2131 26.5,15.5 Z M 29.5,23.5 C 26.0752,24.9842 24.0752,27.6508 23.5,31.5C 26.0199,39.4329 30.6865,41.0995 37.5,36.5C 40.7365,28.6495 38.0699,24.3162 29.5,23.5 Z"/></g>
</svg>
