<?xml version="1.0" encoding="UTF-8"?>
<!DOCTYPE svg PUBLIC "-//W3C//DTD SVG 1.1//EN" "http://www.w3.org/Graphics/SVG/1.1/DTD/svg11.dtd">
<svg xmlns="http://www.w3.org/2000/svg" version="1.1" width="74px" height="60px" style="shape-rendering:geometricPrecision; text-rendering:geometricPrecision; image-rendering:optimizeQuality; fill-rule:evenodd; clip-rule:evenodd" xmlns:xlink="http://www.w3.org/1999/xlink">
<g><path style="opacity:1" fill="#000000" d="M -0.5,-0.5 C 12.8333,-0.5 26.1667,-0.5 39.5,-0.5C 39.5,2.16667 39.5,4.83333 39.5,7.5C 26.1667,7.5 12.8333,7.5 -0.5,7.5C -0.5,4.83333 -0.5,2.16667 -0.5,-0.5 Z"/></g>
<g><path style="opacity:1" fill="#131313" d="M 73.5,8.5 C 73.5,8.83333 73.5,9.16667 73.5,9.5C 60.0281,25.7656 47.0281,42.4322 34.5,59.5C 34.1667,59.5 33.8333,59.5 33.5,59.5C 26.6578,52.4939 19.3245,45.9939 11.5,40C 13.7089,38.1266 15.5422,35.96 17,33.5C 22.3333,38.1667 27.6667,42.8333 33,47.5C 44.3333,32.8333 55.6667,18.1667 67,3.5C 68.9263,5.53885 71.093,7.20552 73.5,8.5 Z"/></g>
<g><path style="opacity:1" fill="#000000" d="M -0.5,15.5 C 7.5,15.5 15.5,15.5 23.5,15.5C 23.5,18.1667 23.5,20.8333 23.5,23.5C 15.5,23.5 7.5,23.5 -0.5,23.5C -0.5,20.8333 -0.5,18.1667 -0.5,15.5 Z"/></g>
</svg>
