<?xml version="1.0" encoding="UTF-8"?>
<!DOCTYPE svg PUBLIC "-//W3C//DTD SVG 1.1//EN" "http://www.w3.org/Graphics/SVG/1.1/DTD/svg11.dtd">
<svg xmlns="http://www.w3.org/2000/svg" version="1.1" width="82px" height="82px" style="shape-rendering:geometricPrecision; text-rendering:geometricPrecision; image-rendering:optimizeQuality; fill-rule:evenodd; clip-rule:evenodd" xmlns:xlink="http://www.w3.org/1999/xlink">
<g><path style="opacity:1" fill="#121212" d="M 32.5,-0.5 C 37.8333,-0.5 43.1667,-0.5 48.5,-0.5C 65.8333,4.16667 76.8333,15.1667 81.5,32.5C 81.5,37.8333 81.5,43.1667 81.5,48.5C 76.8333,65.8333 65.8333,76.8333 48.5,81.5C 43.1667,81.5 37.8333,81.5 32.5,81.5C 15.1667,76.8333 4.16667,65.8333 -0.5,48.5C -0.5,43.1667 -0.5,37.8333 -0.5,32.5C 4.16667,15.1667 15.1667,4.16667 32.5,-0.5 Z M 36.5,7.5 C 58.5976,7.59937 70.9309,18.5994 73.5,40.5C 71.5,60.5 60.5,71.5 40.5,73.5C 20.5,71.5 9.5,60.5 7.5,40.5C 9.10173,22.2406 18.7684,11.2406 36.5,7.5 Z"/></g>
<g><path style="opacity:1" fill="#151515" d="M 51.5,24.5 C 53.8031,26.3247 56.1364,28.1581 58.5,30C 51.2118,39.4104 44.0451,48.9104 37,58.5C 31.5919,53.8804 26.0919,49.3804 20.5,45C 22.4521,42.9261 24.2854,40.7594 26,38.5C 29.3333,41.1667 32.6667,43.8333 36,46.5C 41.3863,39.2872 46.5529,31.9538 51.5,24.5 Z"/></g>
</svg>
