<?xml version="1.0" encoding="UTF-8"?>
<!DOCTYPE svg PUBLIC "-//W3C//DTD SVG 1.1//EN" "http://www.w3.org/Graphics/SVG/1.1/DTD/svg11.dtd">
<svg xmlns="http://www.w3.org/2000/svg" version="1.1" width="88px" height="84px" style="shape-rendering:geometricPrecision; text-rendering:geometricPrecision; image-rendering:optimizeQuality; fill-rule:evenodd; clip-rule:evenodd" xmlns:xlink="http://www.w3.org/1999/xlink">
<g><path style="opacity:1" fill="#000000" d="M 11.5,-0.5 C 14.1667,-0.5 16.8333,-0.5 19.5,-0.5C 19.5,3.5 19.5,7.5 19.5,11.5C 23.5,11.5 27.5,11.5 31.5,11.5C 31.5,14.1667 31.5,16.8333 31.5,19.5C 27.5,19.5 23.5,19.5 19.5,19.5C 19.5,23.5 19.5,27.5 19.5,31.5C 16.8333,31.5 14.1667,31.5 11.5,31.5C 11.5,27.5 11.5,23.5 11.5,19.5C 7.5,19.5 3.5,19.5 -0.5,19.5C -0.5,16.8333 -0.5,14.1667 -0.5,11.5C 3.5,11.5 7.5,11.5 11.5,11.5C 11.5,7.5 11.5,3.5 11.5,-0.5 Z"/></g>
<g><path style="opacity:1" fill="#0f0f0f" d="M 87.5,7.5 C 87.5,12.8333 87.5,18.1667 87.5,23.5C 86.1851,31.1218 82.5184,37.4551 76.5,42.5C 69.4234,66.3901 53.4234,76.0568 28.5,71.5C 27.8379,75.4659 27.5045,79.4659 27.5,83.5C 24.8333,83.5 22.1667,83.5 19.5,83.5C 18.9047,58.4334 27.5713,37.2667 45.5,20C 57.9918,10.8928 71.9918,6.7261 87.5,7.5 Z M 63.5,47.5 C 64.4916,47.3284 65.1583,47.6618 65.5,48.5C 62.658,54.8412 57.9913,59.3412 51.5,62C 44.5631,63.2878 37.5631,63.7878 30.5,63.5C 35.5484,36.4516 51.5484,20.4516 78.5,15.5C 79.4451,32.8853 71.1118,40.8853 53.5,39.5C 53.5,42.1667 53.5,44.8333 53.5,47.5C 56.8333,47.5 60.1667,47.5 63.5,47.5 Z"/></g>
<g><path style="opacity:0.553" fill="#727272" d="M 63.5,47.5 C 64.3864,46.2241 65.3864,46.2241 66.5,47.5C 66.3764,48.1067 66.0431,48.44 65.5,48.5C 65.1583,47.6618 64.4916,47.3284 63.5,47.5 Z"/></g>
</svg>
