<?xml version="1.0" encoding="UTF-8"?>
<!DOCTYPE svg PUBLIC "-//W3C//DTD SVG 1.1//EN" "http://www.w3.org/Graphics/SVG/1.1/DTD/svg11.dtd">
<svg xmlns="http://www.w3.org/2000/svg" version="1.1" width="82px" height="82px" style="shape-rendering:geometricPrecision; text-rendering:geometricPrecision; image-rendering:optimizeQuality; fill-rule:evenodd; clip-rule:evenodd" xmlns:xlink="http://www.w3.org/1999/xlink">
<g><path style="opacity:1" fill="#101010" d="M 32.5,-0.5 C 37.8333,-0.5 43.1667,-0.5 48.5,-0.5C 65.8333,4.16667 76.8333,15.1667 81.5,32.5C 81.5,37.8333 81.5,43.1667 81.5,48.5C 76.8333,65.8333 65.8333,76.8333 48.5,81.5C 43.1667,81.5 37.8333,81.5 32.5,81.5C 15.1667,76.8333 4.16667,65.8333 -0.5,48.5C -0.5,43.1667 -0.5,37.8333 -0.5,32.5C 4.16667,15.1667 15.1667,4.16667 32.5,-0.5 Z M 44.5,7.5 C 51.1296,8.98129 57.1296,11.8146 62.5,16C 57.0496,18.147 51.7163,20.4804 46.5,23C 50.5,28.6667 54.5,34.3333 58.5,40C 56.7978,44.4102 56.4644,48.9102 57.5,53.5C 60.9939,55.0795 64.3272,56.9128 67.5,59C 57.3448,72.0506 44.3448,76.0506 28.5,71C 10.2316,61.6248 4.23164,47.1248 10.5,27.5C 11,27.1667 11.5,26.8333 12,26.5C 14.6156,27.6153 17.1156,28.9486 19.5,30.5C 21.6793,40.7149 23.0126,51.0482 23.5,61.5C 28.0785,63.7058 32.5785,66.0391 37,68.5C 39.1247,60.8807 41.1247,53.214 43,45.5C 45.6924,42.3081 48.1924,38.9748 50.5,35.5C 45.283,32.0835 39.6163,29.4168 33.5,27.5C 32.2885,25.1595 32.6218,22.9928 34.5,21C 36.8333,19.8333 39.1667,18.6667 41.5,17.5C 42.7546,14.2138 43.7546,10.8804 44.5,7.5 Z M 31.5,8.5 C 35.7954,8.27874 36.4621,9.61207 33.5,12.5C 31.5,13.5 29.5,14.5 27.5,15.5C 26.2384,18.1155 25.0718,20.7821 24,23.5C 21.2419,22.2054 18.7419,20.5388 16.5,18.5C 20.7025,13.9037 25.7025,10.5704 31.5,8.5 Z M 65.5,23.5 C 66.8221,23.33 67.9887,23.6634 69,24.5C 73.8843,33.2269 74.551,42.2269 71,51.5C 69.3333,50.5 67.6667,49.5 66,48.5C 66.1859,44.5159 66.1859,40.5159 66,36.5C 63.7098,33.4201 61.5431,30.2534 59.5,27C 61.4319,25.5415 63.4319,24.3748 65.5,23.5 Z M 30.5,35.5 C 33.0573,36.1878 35.3907,37.3545 37.5,39C 34.3738,43.6505 32.5405,48.8172 32,54.5C 31.6667,55.1667 31.3333,55.8333 31,56.5C 30.7065,50.1334 30.2065,43.8001 29.5,37.5C 29.3284,36.5084 29.6618,35.8417 30.5,35.5 Z"/></g>
<g><path style="opacity:0.298" fill="#8f8f8f" d="M 30.5,35.5 C 29.6618,35.8417 29.3284,36.5084 29.5,37.5C 28.2241,36.6136 28.2241,35.6136 29.5,34.5C 30.1067,34.6236 30.44,34.9569 30.5,35.5 Z"/></g>
</svg>
