<?xml version="1.0" encoding="UTF-8"?>
<!DOCTYPE svg PUBLIC "-//W3C//DTD SVG 1.1//EN" "http://www.w3.org/Graphics/SVG/1.1/DTD/svg11.dtd">
<svg xmlns="http://www.w3.org/2000/svg" version="1.1" width="80px" height="72px" style="shape-rendering:geometricPrecision; text-rendering:geometricPrecision; image-rendering:optimizeQuality; fill-rule:evenodd; clip-rule:evenodd" xmlns:xlink="http://www.w3.org/1999/xlink">
<g><path style="opacity:1" fill="#030303" d="M 5.5,-0.5 C 28.1667,-0.5 50.8333,-0.5 73.5,-0.5C 75.8333,1.16667 77.8333,3.16667 79.5,5.5C 79.5,25.5 79.5,45.5 79.5,65.5C 77.8333,67.8333 75.8333,69.8333 73.5,71.5C 50.8333,71.5 28.1667,71.5 5.5,71.5C 3.16667,69.8333 1.16667,67.8333 -0.5,65.5C -0.5,45.5 -0.5,25.5 -0.5,5.5C 1.16667,3.16667 3.16667,1.16667 5.5,-0.5 Z M 8.5,7.5 C 29.1694,7.33338 49.836,7.50004 70.5,8C 71.6585,26.0931 71.8252,44.2597 71,62.5C 50.2397,63.6596 29.4063,63.8263 8.5,63C 7.17284,44.5 7.17284,26 8.5,7.5 Z M 23.5,23.5 C 26.1667,23.5 28.8333,23.5 31.5,23.5C 31.5,26.1667 31.5,28.8333 31.5,31.5C 28.8333,31.5 26.1667,31.5 23.5,31.5C 23.5,28.8333 23.5,26.1667 23.5,23.5 Z"/></g>
<g><path style="opacity:1" fill="#000000" d="M 15.5,15.5 C 23.5,15.5 31.5,15.5 39.5,15.5C 39.5,23.5 39.5,31.5 39.5,39.5C 31.5,39.5 23.5,39.5 15.5,39.5C 15.5,31.5 15.5,23.5 15.5,15.5 Z M 23.5,23.5 C 23.5,26.1667 23.5,28.8333 23.5,31.5C 26.1667,31.5 28.8333,31.5 31.5,31.5C 31.5,28.8333 31.5,26.1667 31.5,23.5C 28.8333,23.5 26.1667,23.5 23.5,23.5 Z"/></g>
<g><path style="opacity:1" fill="#000000" d="M 47.5,15.5 C 52.8333,15.5 58.1667,15.5 63.5,15.5C 63.5,18.1667 63.5,20.8333 63.5,23.5C 58.1667,23.5 52.8333,23.5 47.5,23.5C 47.5,20.8333 47.5,18.1667 47.5,15.5 Z"/></g>
<g><path style="opacity:1" fill="#000000" d="M 47.5,31.5 C 52.8333,31.5 58.1667,31.5 63.5,31.5C 63.5,34.1667 63.5,36.8333 63.5,39.5C 58.1667,39.5 52.8333,39.5 47.5,39.5C 47.5,36.8333 47.5,34.1667 47.5,31.5 Z"/></g>
<g><path style="opacity:1" fill="#000000" d="M 15.5,47.5 C 31.5,47.5 47.5,47.5 63.5,47.5C 63.5,50.1667 63.5,52.8333 63.5,55.5C 47.5,55.5 31.5,55.5 15.5,55.5C 15.5,52.8333 15.5,50.1667 15.5,47.5 Z"/></g>
</svg>
