<?xml version="1.0" encoding="UTF-8"?>
<!DOCTYPE svg PUBLIC "-//W3C//DTD SVG 1.1//EN" "http://www.w3.org/Graphics/SVG/1.1/DTD/svg11.dtd">
<svg xmlns="http://www.w3.org/2000/svg" version="1.1" width="72px" height="80px" style="shape-rendering:geometricPrecision; text-rendering:geometricPrecision; image-rendering:optimizeQuality; fill-rule:evenodd; clip-rule:evenodd" xmlns:xlink="http://www.w3.org/1999/xlink">
<g><path style="opacity:1" fill="#030303" d="M 5.5,-0.5 C 25.5,-0.5 45.5,-0.5 65.5,-0.5C 67.8333,1.16667 69.8333,3.16667 71.5,5.5C 71.5,28.1667 71.5,50.8333 71.5,73.5C 69.8333,75.8333 67.8333,77.8333 65.5,79.5C 45.5,79.5 25.5,79.5 5.5,79.5C 3.16667,77.8333 1.16667,75.8333 -0.5,73.5C -0.5,50.8333 -0.5,28.1667 -0.5,5.5C 1.16667,3.16667 3.16667,1.16667 5.5,-0.5 Z M 8.5,7.5 C 26.7433,7.17427 44.9099,7.5076 63,8.5C 63.8263,29.4063 63.6596,50.2397 62.5,71C 44.2597,71.8252 26.0931,71.6585 8,70.5C 7.17913,49.4271 7.34579,28.4271 8.5,7.5 Z"/></g>
<g><path style="opacity:1" fill="#000000" d="M 19.5,23.5 C 30.1667,23.5 40.8333,23.5 51.5,23.5C 51.5,26.1667 51.5,28.8333 51.5,31.5C 40.8333,31.5 30.1667,31.5 19.5,31.5C 19.5,28.8333 19.5,26.1667 19.5,23.5 Z"/></g>
<g><path style="opacity:1" fill="#000000" d="M 19.5,39.5 C 30.1667,39.5 40.8333,39.5 51.5,39.5C 51.5,42.1667 51.5,44.8333 51.5,47.5C 40.8333,47.5 30.1667,47.5 19.5,47.5C 19.5,44.8333 19.5,42.1667 19.5,39.5 Z"/></g>
</svg>
