<?xml version="1.0" encoding="UTF-8"?>
<!DOCTYPE svg PUBLIC "-//W3C//DTD SVG 1.1//EN" "http://www.w3.org/Graphics/SVG/1.1/DTD/svg11.dtd">
<svg xmlns="http://www.w3.org/2000/svg" version="1.1" width="74px" height="80px" style="shape-rendering:geometricPrecision; text-rendering:geometricPrecision; image-rendering:optimizeQuality; fill-rule:evenodd; clip-rule:evenodd" xmlns:xlink="http://www.w3.org/1999/xlink">
<g><path style="opacity:1" fill="#0e0e0e" d="M 29.5,-0.5 C 34.1667,-0.5 38.8333,-0.5 43.5,-0.5C 54.57,2.72952 62.4034,9.72952 67,20.5C 69.4242,34.263 71.5909,47.9297 73.5,61.5C 73.5,62.1667 73.5,62.8333 73.5,63.5C 67.8236,63.3339 62.1569,63.5006 56.5,64C 53.982,71.6831 48.982,76.8497 41.5,79.5C 38.1667,79.5 34.8333,79.5 31.5,79.5C 24.018,76.8497 19.018,71.6831 16.5,64C 10.8431,63.5006 5.17645,63.3339 -0.5,63.5C -0.5,62.8333 -0.5,62.1667 -0.5,61.5C 1.40972,47.923 3.57638,34.2564 6,20.5C 10.5966,9.72952 18.43,2.72952 29.5,-0.5 Z M 33.5,7.5 C 47.2286,7.10628 56.062,13.4396 60,26.5C 61.402,36.1461 62.5687,45.8127 63.5,55.5C 45.5,55.5 27.5,55.5 9.5,55.5C 10.2723,43.6506 12.1057,31.9839 15,20.5C 19.2781,13.2935 25.4448,8.96015 33.5,7.5 Z M 25.5,64.5 C 32.6549,63.3448 39.9882,63.1782 47.5,64C 40.3764,73.7991 33.0431,73.9658 25.5,64.5 Z"/></g>
</svg>
