<?xml version="1.0" encoding="UTF-8"?>
<!DOCTYPE svg PUBLIC "-//W3C//DTD SVG 1.1//EN" "http://www.w3.org/Graphics/SVG/1.1/DTD/svg11.dtd">
<svg xmlns="http://www.w3.org/2000/svg" version="1.1" width="70px" height="76px" style="shape-rendering:geometricPrecision; text-rendering:geometricPrecision; image-rendering:optimizeQuality; fill-rule:evenodd; clip-rule:evenodd" xmlns:xlink="http://www.w3.org/1999/xlink">
<g><path style="opacity:1" fill="#0f0f0f" d="M 29.5,-0.5 C 32.8333,-0.5 36.1667,-0.5 39.5,-0.5C 48.3051,3.77681 51.8051,10.7768 50,20.5C 44.6382,31.4313 36.4716,34.2646 25.5,29C 18.0855,22.7052 16.5855,15.2052 21,6.5C 23.4412,3.54644 26.2745,1.21311 29.5,-0.5 Z M 32.5,7.5 C 41.0699,8.31616 43.7365,12.6495 40.5,20.5C 33.6865,25.0995 29.0199,23.4329 26.5,15.5C 27.0752,11.6508 29.0752,8.98418 32.5,7.5 Z"/></g>
<g><path style="opacity:1" fill="#0b0b0b" d="M 69.5,74.5 C 69.5,74.8333 69.5,75.1667 69.5,75.5C 46.1667,75.5 22.8333,75.5 -0.5,75.5C -0.5,75.1667 -0.5,74.8333 -0.5,74.5C -0.204746,57.0776 7.79525,44.5776 23.5,37C 45.4646,31.9724 59.9646,40.1391 67,61.5C 67.7602,65.9884 68.5935,70.3217 69.5,74.5 Z M 30.5,43.5 C 47.4063,42.7829 57.0729,50.7829 59.5,67.5C 42.8333,67.5 26.1667,67.5 9.5,67.5C 11.456,54.8307 18.456,46.8307 30.5,43.5 Z"/></g>
</svg>
