<?xml version="1.0" encoding="UTF-8"?>
<!DOCTYPE svg PUBLIC "-//W3C//DTD SVG 1.1//EN" "http://www.w3.org/Graphics/SVG/1.1/DTD/svg11.dtd">
<svg xmlns="http://www.w3.org/2000/svg" version="1.1" width="64px" height="83px" style="shape-rendering:geometricPrecision; text-rendering:geometricPrecision; image-rendering:optimizeQuality; fill-rule:evenodd; clip-rule:evenodd" xmlns:xlink="http://www.w3.org/1999/xlink">
<g><path style="opacity:1" fill="#050505" d="M 17.5,-0.5 C 26.8333,-0.5 36.1667,-0.5 45.5,-0.5C 47.807,0.977392 49.6403,2.97739 51,5.5C 51.3333,14.1667 51.6667,22.8333 52,31.5C 55.6076,39.0523 59.441,46.3856 63.5,53.5C 63.5,54.1667 63.5,54.8333 63.5,55.5C 54.1667,55.5 44.8333,55.5 35.5,55.5C 35.6663,62.5079 35.4996,69.5079 35,76.5C 33.878,78.4068 33.0447,80.4068 32.5,82.5C 31.8333,82.5 31.1667,82.5 30.5,82.5C 29.9553,80.4068 29.122,78.4068 28,76.5C 27.5004,69.5079 27.3337,62.5079 27.5,55.5C 18.1667,55.5 8.83333,55.5 -0.5,55.5C -0.5,54.8333 -0.5,54.1667 -0.5,53.5C 3.55902,46.3856 7.39235,39.0523 11,31.5C 11.3333,22.8333 11.6667,14.1667 12,5.5C 13.3597,2.97739 15.193,0.977392 17.5,-0.5 Z M 20.5,7.5 C 28.0871,7.18583 35.5871,7.51916 43,8.5C 43.3333,16.8333 43.6667,25.1667 44,33.5C 46.1667,37.8333 48.3333,42.1667 50.5,46.5C 37.8333,47.8333 25.1667,47.8333 12.5,46.5C 14.6667,42.1667 16.8333,37.8333 19,33.5C 19.1954,24.7557 19.6954,16.089 20.5,7.5 Z"/></g>
</svg>
