<?xml version="1.0" encoding="UTF-8"?>
<!DOCTYPE svg PUBLIC "-//W3C//DTD SVG 1.1//EN" "http://www.w3.org/Graphics/SVG/1.1/DTD/svg11.dtd">
<svg xmlns="http://www.w3.org/2000/svg" version="1.1" width="80px" height="80px" style="shape-rendering:geometricPrecision; text-rendering:geometricPrecision; image-rendering:optimizeQuality; fill-rule:evenodd; clip-rule:evenodd" xmlns:xlink="http://www.w3.org/1999/xlink">
<g><path style="opacity:1" fill="#0f0f0f" d="M 26.5,-0.5 C 31.1667,-0.5 35.8333,-0.5 40.5,-0.5C 61.9177,6.98752 70.4177,21.9875 66,44.5C 64.4205,47.9939 62.5872,51.3272 60.5,54.5C 66.521,61.1877 72.8543,67.521 79.5,73.5C 79.5,73.8333 79.5,74.1667 79.5,74.5C 77.5,75.8333 75.8333,77.5 74.5,79.5C 74.1667,79.5 73.8333,79.5 73.5,79.5C 67.521,72.8543 61.1877,66.521 54.5,60.5C 37.3635,71.1452 21.5301,69.4785 7,55.5C 3.92148,50.6764 1.42148,45.6764 -0.5,40.5C -0.5,35.8333 -0.5,31.1667 -0.5,26.5C 3.5,12.5 12.5,3.5 26.5,-0.5 Z M 29.5,7.5 C 47.262,7.26449 57.262,15.9312 59.5,33.5C 57.8333,49.1667 49.1667,57.8333 33.5,59.5C 17.8333,57.8333 9.16667,49.1667 7.5,33.5C 8.77828,19.5653 16.1116,10.8986 29.5,7.5 Z"/></g>
</svg>
